<?xml version="1.0" encoding="utf-8" standalone="no"?>
<!DOCTYPE svg PUBLIC "-//W3C//DTD SVG 1.1//EN"
  "http://www.w3.org/Graphics/SVG/1.1/DTD/svg11.dtd">
<svg xmlns:xlink="http://www.w3.org/1999/xlink" width="1080pt" height="476.64pt" viewBox="0 0 1080 476.64" xmlns="http://www.w3.org/2000/svg" version="1.1">
 <metadata>
  <rdf:RDF xmlns:dc="http://purl.org/dc/elements/1.1/" xmlns:cc="http://creativecommons.org/ns#" xmlns:rdf="http://www.w3.org/1999/02/22-rdf-syntax-ns#">
   <cc:Work>
    <dc:type rdf:resource="http://purl.org/dc/dcmitype/StillImage"/>
    <dc:date>2026-09-10T13:02:57.037791</dc:date>
    <dc:format>image/svg+xml</dc:format>
    <dc:creator>
     <cc:Agent>
      <dc:title>Matplotlib v3.10.8, https://matplotlib.org/</dc:title>
     </cc:Agent>
    </dc:creator>
   </cc:Work>
  </rdf:RDF>
 </metadata>
 <defs>
  <style type="text/css">*{stroke-linejoin: round; stroke-linecap: butt}</style>
 </defs>
 <g id="figure_1">
  <g id="patch_1">
   <path d="M 0 476.64 
L 1080 476.64 
L 1080 0 
L 0 0 
z
" style="fill: #ffffff"/>
  </g>
  <g id="axes_1">
   <g id="patch_2">
    <path d="M 237.6 362.2464 
L 503.632844 362.2464 
L 503.632844 128.6928 
L 237.6 128.6928 
z
" style="fill: #ffffff"/>
   </g>
   <g id="matplotlib.axis_1">
    <g id="xtick_1">
     <g id="line2d_1">
      <path d="M 237.6 362.2464 
L 237.6 128.6928 
" clip-path="url(#p8a953a0768)" style="fill: none; stroke: #b0b0b0; stroke-opacity: 0.15; stroke-width: 0.8; stroke-linecap: square"/>
     </g>
     <g id="line2d_2">
      <defs>
       <path id="m55345e68ae" d="M 0 0 
L 0 3.5 
" style="stroke: #000000; stroke-width: 0.8"/>
      </defs>
      <g>
       <use xlink:href="#m55345e68ae" x="237.6" y="362.2464" style="stroke: #000000; stroke-width: 0.8"/>
      </g>
     </g>
     <g id="text_1">
      <text style="font-size: 10px; font-family: 'DejaVu Sans'; text-anchor: middle" x="237.6" y="376.844837" transform="rotate(-0 237.6 376.844837)">0</text>
     </g>
    </g>
    <g id="xtick_2">
     <g id="line2d_3">
      <path d="M 291.274261 362.2464 
L 291.274261 128.6928 
" clip-path="url(#p8a953a0768)" style="fill: none; stroke: #b0b0b0; stroke-opacity: 0.15; stroke-width: 0.8; stroke-linecap: square"/>
     </g>
     <g id="line2d_4">
      <g>
       <use xlink:href="#m55345e68ae" x="291.274261" y="362.2464" style="stroke: #000000; stroke-width: 0.8"/>
      </g>
     </g>
     <g id="text_2">
      <text style="font-size: 10px; font-family: 'DejaVu Sans'; text-anchor: middle" x="291.274261" y="376.844837" transform="rotate(-0 291.274261 376.844837)">20</text>
     </g>
    </g>
    <g id="xtick_3">
     <g id="line2d_5">
      <path d="M 344.948523 362.2464 
L 344.948523 128.6928 
" clip-path="url(#p8a953a0768)" style="fill: none; stroke: #b0b0b0; stroke-opacity: 0.15; stroke-width: 0.8; stroke-linecap: square"/>
     </g>
     <g id="line2d_6">
      <g>
       <use xlink:href="#m55345e68ae" x="344.948523" y="362.2464" style="stroke: #000000; stroke-width: 0.8"/>
      </g>
     </g>
     <g id="text_3">
      <text style="font-size: 10px; font-family: 'DejaVu Sans'; text-anchor: middle" x="344.948523" y="376.844837" transform="rotate(-0 344.948523 376.844837)">40</text>
     </g>
    </g>
    <g id="xtick_4">
     <g id="line2d_7">
      <path d="M 398.622784 362.2464 
L 398.622784 128.6928 
" clip-path="url(#p8a953a0768)" style="fill: none; stroke: #b0b0b0; stroke-opacity: 0.15; stroke-width: 0.8; stroke-linecap: square"/>
     </g>
     <g id="line2d_8">
      <g>
       <use xlink:href="#m55345e68ae" x="398.622784" y="362.2464" style="stroke: #000000; stroke-width: 0.8"/>
      </g>
     </g>
     <g id="text_4">
      <text style="font-size: 10px; font-family: 'DejaVu Sans'; text-anchor: middle" x="398.622784" y="376.844837" transform="rotate(-0 398.622784 376.844837)">60</text>
     </g>
    </g>
    <g id="xtick_5">
     <g id="line2d_9">
      <path d="M 452.297046 362.2464 
L 452.297046 128.6928 
" clip-path="url(#p8a953a0768)" style="fill: none; stroke: #b0b0b0; stroke-opacity: 0.15; stroke-width: 0.8; stroke-linecap: square"/>
     </g>
     <g id="line2d_10">
      <g>
       <use xlink:href="#m55345e68ae" x="452.297046" y="362.2464" style="stroke: #000000; stroke-width: 0.8"/>
      </g>
     </g>
     <g id="text_5">
      <text style="font-size: 10px; font-family: 'DejaVu Sans'; text-anchor: middle" x="452.297046" y="376.844837" transform="rotate(-0 452.297046 376.844837)">80</text>
     </g>
    </g>
    <g id="text_6">
     <text style="font-size: 10px; font-family: 'DejaVu Sans'; text-anchor: middle" x="370.616422" y="390.522963" transform="rotate(-0 370.616422 390.522963)">tokens / second · dotted line = 40</text>
    </g>
   </g>
   <g id="matplotlib.axis_2">
    <g id="ytick_1">
     <g id="line2d_11"/>
     <g id="text_7">
      <text style="font-size: 10px; font-family: 'DejaVu Sans'; text-anchor: end" x="234.1" y="153.628524" transform="rotate(-0 234.1 153.628524)">Qwen3 8B · GGUF</text>
     </g>
    </g>
    <g id="ytick_2">
     <g id="line2d_12"/>
     <g id="text_8">
      <text style="font-size: 10px; font-family: 'DejaVu Sans'; text-anchor: end" x="234.1" y="191.884642" transform="rotate(-0 234.1 191.884642)">Qwen3 8B · GGUF repeat</text>
     </g>
    </g>
    <g id="ytick_3">
     <g id="line2d_13"/>
     <g id="text_9">
      <text style="font-size: 10px; font-family: 'DejaVu Sans'; text-anchor: end" x="234.1" y="230.14076" transform="rotate(-0 234.1 230.14076)">Qwen3 8B · MLX four-bit</text>
     </g>
    </g>
    <g id="ytick_4">
     <g id="line2d_14"/>
     <g id="text_10">
      <text style="font-size: 10px; font-family: 'DejaVu Sans'; text-anchor: end" x="234.1" y="268.396878" transform="rotate(-0 234.1 268.396878)">Qwen3.6 35B · GGUF</text>
     </g>
    </g>
    <g id="ytick_5">
     <g id="line2d_15"/>
     <g id="text_11">
      <text style="font-size: 10px; font-family: 'DejaVu Sans'; text-anchor: end" x="234.1" y="306.652996" transform="rotate(-0 234.1 306.652996)">Gemma4 26B · GGUF</text>
     </g>
    </g>
    <g id="ytick_6">
     <g id="line2d_16"/>
     <g id="text_12">
      <text style="font-size: 10px; font-family: 'DejaVu Sans'; text-anchor: end" x="234.1" y="344.909114" transform="rotate(-0 234.1 344.909114)">Qwen3.8 27B · GGUF</text>
     </g>
    </g>
   </g>
   <g id="patch_3">
    <path d="M 237.6 139.308873 
L 341.587045 139.308873 
L 341.587045 148.872902 
L 237.6 148.872902 
z
" clip-path="url(#p8a953a0768)" style="fill: #386ca2"/>
   </g>
   <g id="patch_4">
    <path d="M 237.6 150.785708 
L 295.592537 150.785708 
L 295.592537 160.349738 
L 237.6 160.349738 
z
" clip-path="url(#p8a953a0768)" style="fill: #5ba5b0"/>
   </g>
   <g id="patch_5">
    <path d="M 237.6 177.564991 
L 400.783782 177.564991 
L 400.783782 187.12902 
L 237.6 187.12902 
z
" clip-path="url(#p8a953a0768)" style="fill: #386ca2"/>
   </g>
   <g id="patch_6">
    <path d="M 237.6 189.041826 
L 325.877671 189.041826 
L 325.877671 198.605856 
L 237.6 198.605856 
z
" clip-path="url(#p8a953a0768)" style="fill: #5ba5b0"/>
   </g>
   <g id="patch_7">
    <path d="M 237.6 215.821109 
L 433.794693 215.821109 
L 433.794693 225.385138 
L 237.6 225.385138 
z
" clip-path="url(#p8a953a0768)" style="fill: #386ca2"/>
   </g>
   <g id="patch_8">
    <path d="M 237.6 227.297944 
L 323.585254 227.297944 
L 323.585254 236.861973 
L 237.6 236.861973 
z
" clip-path="url(#p8a953a0768)" style="fill: #5ba5b0"/>
   </g>
   <g id="patch_9">
    <path d="M 237.6 254.077227 
L 439.519931 254.077227 
L 439.519931 263.641256 
L 237.6 263.641256 
z
" clip-path="url(#p8a953a0768)" style="fill: #386ca2"/>
   </g>
   <g id="patch_10">
    <path d="M 237.6 265.554062 
L 363.230421 265.554062 
L 363.230421 275.118091 
L 237.6 275.118091 
z
" clip-path="url(#p8a953a0768)" style="fill: #5ba5b0"/>
   </g>
   <g id="patch_11">
    <path d="M 237.6 292.333344 
L 466.938658 292.333344 
L 466.938658 301.897374 
L 237.6 301.897374 
z
" clip-path="url(#p8a953a0768)" style="fill: #386ca2"/>
   </g>
   <g id="patch_12">
    <path d="M 237.6 303.81018 
L 368.880613 303.81018 
L 368.880613 313.374209 
L 237.6 313.374209 
z
" clip-path="url(#p8a953a0768)" style="fill: #5ba5b0"/>
   </g>
   <g id="patch_13">
    <path d="M 237.6 330.589462 
L 277.548343 330.589462 
L 277.548343 340.153492 
L 237.6 340.153492 
z
" clip-path="url(#p8a953a0768)" style="fill: #386ca2"/>
   </g>
   <g id="patch_14">
    <path d="M 237.6 342.066298 
L 261.819968 342.066298 
L 261.819968 351.630327 
L 237.6 351.630327 
z
" clip-path="url(#p8a953a0768)" style="fill: #5ba5b0"/>
   </g>
   <g id="line2d_17">
    <path d="M 344.948523 362.2464 
L 344.948523 128.6928 
" clip-path="url(#p8a953a0768)" style="fill: none; stroke-dasharray: 1,1.65; stroke-dashoffset: 0; stroke: #6d7781"/>
   </g>
   <g id="patch_15">
    <path d="M 237.6 362.2464 
L 503.632844 362.2464 
" style="fill: none; stroke: #cbd2d9; stroke-width: 0.8; stroke-linejoin: miter; stroke-linecap: square"/>
   </g>
   <g id="text_13">
    <text style="font-size: 9px; font-family: 'DejaVu Sans'; text-anchor: start" x="344.270758" y="146.574325" transform="rotate(-0 344.270758 146.574325)">38.7</text>
   </g>
   <g id="text_14">
    <text style="font-size: 9px; font-family: 'DejaVu Sans'; text-anchor: start" x="298.27625" y="158.05116" transform="rotate(-0 298.27625 158.05116)">21.6</text>
   </g>
   <g id="text_15">
    <text style="font-size: 9px; font-family: 'DejaVu Sans'; text-anchor: start" x="403.467495" y="184.830443" transform="rotate(-0 403.467495 184.830443)">60.8</text>
   </g>
   <g id="text_16">
    <text style="font-size: 9px; font-family: 'DejaVu Sans'; text-anchor: start" x="328.561385" y="196.307278" transform="rotate(-0 328.561385 196.307278)">32.9</text>
   </g>
   <g id="text_17">
    <text style="font-size: 9px; font-family: 'DejaVu Sans'; text-anchor: start" x="436.478406" y="223.086561" transform="rotate(-0 436.478406 223.086561)">73.1</text>
   </g>
   <g id="text_18">
    <text style="font-size: 9px; font-family: 'DejaVu Sans'; text-anchor: start" x="326.268967" y="234.563396" transform="rotate(-0 326.268967 234.563396)">32.0</text>
   </g>
   <g id="text_19">
    <text style="font-size: 9px; font-family: 'DejaVu Sans'; text-anchor: start" x="442.203644" y="261.342679" transform="rotate(-0 442.203644 261.342679)">75.2</text>
   </g>
   <g id="text_20">
    <text style="font-size: 9px; font-family: 'DejaVu Sans'; text-anchor: start" x="365.914134" y="272.819514" transform="rotate(-0 365.914134 272.819514)">46.8</text>
   </g>
   <g id="text_21">
    <text style="font-size: 9px; font-family: 'DejaVu Sans'; text-anchor: start" x="469.622371" y="299.598797" transform="rotate(-0 469.622371 299.598797)">85.5</text>
   </g>
   <g id="text_22">
    <text style="font-size: 9px; font-family: 'DejaVu Sans'; text-anchor: start" x="371.564326" y="311.075632" transform="rotate(-0 371.564326 311.075632)">48.9</text>
   </g>
   <g id="text_23">
    <text style="font-size: 9px; font-family: 'DejaVu Sans'; text-anchor: start" x="280.232056" y="337.854915" transform="rotate(-0 280.232056 337.854915)">14.9</text>
   </g>
   <g id="text_24">
    <text style="font-size: 9px; font-family: 'DejaVu Sans'; text-anchor: start" x="264.503681" y="349.33175" transform="rotate(-0 264.503681 349.33175)">9.0</text>
   </g>
   <g id="text_25">
    <text style="font-weight: 700; font-size: 12px; font-family: 'DejaVu Sans'; text-anchor: start" x="237.6" y="88.6928" transform="rotate(-0 237.6 88.6928)">Actual source workload</text>
   </g>
   <g id="legend_1">
    <g id="patch_16">
     <path d="M 244.8 104.583246 
L 260.8 104.583246 
L 260.8 98.983246 
L 244.8 98.983246 
z
" style="fill: #386ca2; stroke: #386ca2; stroke-linejoin: miter"/>
    </g>
    <g id="text_26">
     <text style="font-size: 8px; font-family: 'DejaVu Sans'; text-anchor: start" x="267.2" y="104.583246" transform="rotate(-0 267.2 104.583246)">Visible phase</text>
    </g>
    <g id="patch_17">
     <path d="M 244.8 116.325746 
L 260.8 116.325746 
L 260.8 110.725746 
L 244.8 110.725746 
z
" style="fill: #5ba5b0; stroke: #5ba5b0; stroke-linejoin: miter"/>
    </g>
    <g id="text_27">
     <text style="font-size: 8px; font-family: 'DejaVu Sans'; text-anchor: start" x="267.2" y="116.325746" transform="rotate(-0 267.2 116.325746)">Including prompt processing</text>
    </g>
   </g>
  </g>
  <g id="axes_2">
   <g id="patch_18">
    <path d="M 568.190147 362.2464 
L 781.016422 362.2464 
L 781.016422 128.6928 
L 568.190147 128.6928 
z
" style="fill: #ffffff"/>
   </g>
   <g id="matplotlib.axis_3">
    <g id="xtick_6">
     <g id="line2d_18">
      <path d="M 568.190147 362.2464 
L 568.190147 128.6928 
" clip-path="url(#pc645844fd0)" style="fill: none; stroke: #b0b0b0; stroke-opacity: 0.15; stroke-width: 0.8; stroke-linecap: square"/>
     </g>
     <g id="line2d_19">
      <g>
       <use xlink:href="#m55345e68ae" x="568.190147" y="362.2464" style="stroke: #000000; stroke-width: 0.8"/>
      </g>
     </g>
     <g id="text_28">
      <text style="font-size: 10px; font-family: 'DejaVu Sans'; text-anchor: middle" x="568.190147" y="376.844837" transform="rotate(-0 568.190147 376.844837)">0</text>
     </g>
    </g>
    <g id="xtick_7">
     <g id="line2d_20">
      <path d="M 621.396716 362.2464 
L 621.396716 128.6928 
" clip-path="url(#pc645844fd0)" style="fill: none; stroke: #b0b0b0; stroke-opacity: 0.15; stroke-width: 0.8; stroke-linecap: square"/>
     </g>
     <g id="line2d_21">
      <g>
       <use xlink:href="#m55345e68ae" x="621.396716" y="362.2464" style="stroke: #000000; stroke-width: 0.8"/>
      </g>
     </g>
     <g id="text_29">
      <text style="font-size: 10px; font-family: 'DejaVu Sans'; text-anchor: middle" x="621.396716" y="376.844837" transform="rotate(-0 621.396716 376.844837)">5</text>
     </g>
    </g>
    <g id="xtick_8">
     <g id="line2d_22">
      <path d="M 674.603284 362.2464 
L 674.603284 128.6928 
" clip-path="url(#pc645844fd0)" style="fill: none; stroke: #b0b0b0; stroke-opacity: 0.15; stroke-width: 0.8; stroke-linecap: square"/>
     </g>
     <g id="line2d_23">
      <g>
       <use xlink:href="#m55345e68ae" x="674.603284" y="362.2464" style="stroke: #000000; stroke-width: 0.8"/>
      </g>
     </g>
     <g id="text_30">
      <text style="font-size: 10px; font-family: 'DejaVu Sans'; text-anchor: middle" x="674.603284" y="376.844837" transform="rotate(-0 674.603284 376.844837)">10</text>
     </g>
    </g>
    <g id="xtick_9">
     <g id="line2d_24">
      <path d="M 727.809853 362.2464 
L 727.809853 128.6928 
" clip-path="url(#pc645844fd0)" style="fill: none; stroke: #b0b0b0; stroke-opacity: 0.15; stroke-width: 0.8; stroke-linecap: square"/>
     </g>
     <g id="line2d_25">
      <g>
       <use xlink:href="#m55345e68ae" x="727.809853" y="362.2464" style="stroke: #000000; stroke-width: 0.8"/>
      </g>
     </g>
     <g id="text_31">
      <text style="font-size: 10px; font-family: 'DejaVu Sans'; text-anchor: middle" x="727.809853" y="376.844837" transform="rotate(-0 727.809853 376.844837)">15</text>
     </g>
    </g>
    <g id="xtick_10">
     <g id="line2d_26">
      <path d="M 781.016422 362.2464 
L 781.016422 128.6928 
" clip-path="url(#pc645844fd0)" style="fill: none; stroke: #b0b0b0; stroke-opacity: 0.15; stroke-width: 0.8; stroke-linecap: square"/>
     </g>
     <g id="line2d_27">
      <g>
       <use xlink:href="#m55345e68ae" x="781.016422" y="362.2464" style="stroke: #000000; stroke-width: 0.8"/>
      </g>
     </g>
     <g id="text_32">
      <text style="font-size: 10px; font-family: 'DejaVu Sans'; text-anchor: middle" x="781.016422" y="376.844837" transform="rotate(-0 781.016422 376.844837)">20</text>
     </g>
    </g>
    <g id="text_33">
     <text style="font-size: 10px; font-family: 'DejaVu Sans'; text-anchor: middle" x="674.603284" y="390.522963" transform="rotate(-0 674.603284 390.522963)">20 answers</text>
    </g>
   </g>
   <g id="matplotlib.axis_4">
    <g id="ytick_7">
     <g id="line2d_28"/>
    </g>
    <g id="ytick_8">
     <g id="line2d_29"/>
    </g>
    <g id="ytick_9">
     <g id="line2d_30"/>
    </g>
    <g id="ytick_10">
     <g id="line2d_31"/>
    </g>
    <g id="ytick_11">
     <g id="line2d_32"/>
    </g>
    <g id="ytick_12">
     <g id="line2d_33"/>
    </g>
   </g>
   <g id="patch_19">
    <path d="M 568.190147 140.456556 
L 759.733794 140.456556 
L 759.733794 159.202054 
L 568.190147 159.202054 
z
" clip-path="url(#pc645844fd0)" style="fill: #247c78"/>
   </g>
   <g id="patch_20">
    <path d="M 759.733794 140.456556 
L 770.375108 140.456556 
L 770.375108 159.202054 
L 759.733794 159.202054 
z
" clip-path="url(#pc645844fd0)" style="fill: #e8b557"/>
   </g>
   <g id="patch_21">
    <path d="M 770.375108 140.456556 
L 781.016422 140.456556 
L 781.016422 159.202054 
L 770.375108 159.202054 
z
" clip-path="url(#pc645844fd0)" style="fill: #bb5356"/>
   </g>
   <g id="patch_22">
    <path d="M 568.190147 178.712674 
L 759.733794 178.712674 
L 759.733794 197.458172 
L 568.190147 197.458172 
z
" clip-path="url(#pc645844fd0)" style="fill: #247c78"/>
   </g>
   <g id="patch_23">
    <path d="M 759.733794 178.712674 
L 770.375108 178.712674 
L 770.375108 197.458172 
L 759.733794 197.458172 
z
" clip-path="url(#pc645844fd0)" style="fill: #e8b557"/>
   </g>
   <g id="patch_24">
    <path d="M 770.375108 178.712674 
L 781.016422 178.712674 
L 781.016422 197.458172 
L 770.375108 197.458172 
z
" clip-path="url(#pc645844fd0)" style="fill: #bb5356"/>
   </g>
   <g id="patch_25">
    <path d="M 568.190147 216.968792 
L 738.451167 216.968792 
L 738.451167 235.71429 
L 568.190147 235.71429 
z
" clip-path="url(#pc645844fd0)" style="fill: #247c78"/>
   </g>
   <g id="patch_26">
    <path d="M 738.451167 216.968792 
L 749.092481 216.968792 
L 749.092481 235.71429 
L 738.451167 235.71429 
z
" clip-path="url(#pc645844fd0)" style="fill: #e8b557"/>
   </g>
   <g id="patch_27">
    <path d="M 749.092481 216.968792 
L 759.733794 216.968792 
L 759.733794 235.71429 
L 749.092481 235.71429 
z
" clip-path="url(#pc645844fd0)" style="fill: #bb5356"/>
   </g>
   <g id="patch_28">
    <path d="M 759.733794 216.968792 
L 781.016422 216.968792 
L 781.016422 235.71429 
L 759.733794 235.71429 
z
" clip-path="url(#pc645844fd0)" style="fill: #8571a7"/>
   </g>
   <g id="patch_29">
    <path d="M 568.190147 255.22491 
L 759.733794 255.22491 
L 759.733794 273.970408 
L 568.190147 273.970408 
z
" clip-path="url(#pc645844fd0)" style="fill: #247c78"/>
   </g>
   <g id="patch_30">
    <path d="M 759.733794 255.22491 
L 781.016422 255.22491 
L 781.016422 273.970408 
L 759.733794 273.970408 
z
" clip-path="url(#pc645844fd0)" style="fill: #e8b557"/>
   </g>
   <g id="patch_31">
    <path d="M 568.190147 293.481028 
L 759.733794 293.481028 
L 759.733794 312.226526 
L 568.190147 312.226526 
z
" clip-path="url(#pc645844fd0)" style="fill: #247c78"/>
   </g>
   <g id="patch_32">
    <path d="M 759.733794 293.481028 
L 781.016422 293.481028 
L 781.016422 312.226526 
L 759.733794 312.226526 
z
" clip-path="url(#pc645844fd0)" style="fill: #e8b557"/>
   </g>
   <g id="patch_33">
    <path d="M 568.190147 331.737146 
L 770.375108 331.737146 
L 770.375108 350.482644 
L 568.190147 350.482644 
z
" clip-path="url(#pc645844fd0)" style="fill: #247c78"/>
   </g>
   <g id="patch_34">
    <path d="M 770.375108 331.737146 
L 781.016422 331.737146 
L 781.016422 350.482644 
L 770.375108 350.482644 
z
" clip-path="url(#pc645844fd0)" style="fill: #e8b557"/>
   </g>
   <g id="patch_35">
    <path d="M 568.190147 362.2464 
L 781.016422 362.2464 
" style="fill: none; stroke: #cbd2d9; stroke-width: 0.8; stroke-linejoin: miter; stroke-linecap: square"/>
   </g>
   <g id="text_34">
    <text style="font-size: 9px; font-family: 'DejaVu Sans'; text-anchor: middle; fill: #ffffff" x="663.961971" y="152.312743" transform="rotate(-0 663.961971 152.312743)">18</text>
   </g>
   <g id="text_35">
    <text style="font-size: 9px; font-family: 'DejaVu Sans'; text-anchor: middle; fill: #29343b" x="765.054451" y="152.312743" transform="rotate(-0 765.054451 152.312743)">1</text>
   </g>
   <g id="text_36">
    <text style="font-size: 9px; font-family: 'DejaVu Sans'; text-anchor: middle; fill: #ffffff" x="775.695765" y="152.312743" transform="rotate(-0 775.695765 152.312743)">1</text>
   </g>
   <g id="text_37">
    <text style="font-size: 9px; font-family: 'DejaVu Sans'; text-anchor: middle; fill: #ffffff" x="663.961971" y="190.568861" transform="rotate(-0 663.961971 190.568861)">18</text>
   </g>
   <g id="text_38">
    <text style="font-size: 9px; font-family: 'DejaVu Sans'; text-anchor: middle; fill: #29343b" x="765.054451" y="190.568861" transform="rotate(-0 765.054451 190.568861)">1</text>
   </g>
   <g id="text_39">
    <text style="font-size: 9px; font-family: 'DejaVu Sans'; text-anchor: middle; fill: #ffffff" x="775.695765" y="190.568861" transform="rotate(-0 775.695765 190.568861)">1</text>
   </g>
   <g id="text_40">
    <text style="font-size: 9px; font-family: 'DejaVu Sans'; text-anchor: middle; fill: #ffffff" x="653.320657" y="228.824979" transform="rotate(-0 653.320657 228.824979)">16</text>
   </g>
   <g id="text_41">
    <text style="font-size: 9px; font-family: 'DejaVu Sans'; text-anchor: middle; fill: #29343b" x="743.771824" y="228.824979" transform="rotate(-0 743.771824 228.824979)">1</text>
   </g>
   <g id="text_42">
    <text style="font-size: 9px; font-family: 'DejaVu Sans'; text-anchor: middle; fill: #ffffff" x="754.413137" y="228.824979" transform="rotate(-0 754.413137 228.824979)">1</text>
   </g>
   <g id="text_43">
    <text style="font-size: 9px; font-family: 'DejaVu Sans'; text-anchor: middle; fill: #ffffff" x="770.375108" y="228.824979" transform="rotate(-0 770.375108 228.824979)">2</text>
   </g>
   <g id="text_44">
    <text style="font-size: 9px; font-family: 'DejaVu Sans'; text-anchor: middle; fill: #ffffff" x="663.961971" y="267.081096" transform="rotate(-0 663.961971 267.081096)">18</text>
   </g>
   <g id="text_45">
    <text style="font-size: 9px; font-family: 'DejaVu Sans'; text-anchor: middle; fill: #29343b" x="770.375108" y="267.081096" transform="rotate(-0 770.375108 267.081096)">2</text>
   </g>
   <g id="text_46">
    <text style="font-size: 9px; font-family: 'DejaVu Sans'; text-anchor: middle; fill: #ffffff" x="663.961971" y="305.337214" transform="rotate(-0 663.961971 305.337214)">18</text>
   </g>
   <g id="text_47">
    <text style="font-size: 9px; font-family: 'DejaVu Sans'; text-anchor: middle; fill: #29343b" x="770.375108" y="305.337214" transform="rotate(-0 770.375108 305.337214)">2</text>
   </g>
   <g id="text_48">
    <text style="font-size: 9px; font-family: 'DejaVu Sans'; text-anchor: middle; fill: #ffffff" x="669.282627" y="343.593332" transform="rotate(-0 669.282627 343.593332)">19</text>
   </g>
   <g id="text_49">
    <text style="font-size: 9px; font-family: 'DejaVu Sans'; text-anchor: middle; fill: #29343b" x="775.695765" y="343.593332" transform="rotate(-0 775.695765 343.593332)">1</text>
   </g>
   <g id="text_50">
    <text style="font-weight: 700; font-size: 12px; font-family: 'DejaVu Sans'; text-anchor: start" x="568.190147" y="88.6928" transform="rotate(-0 568.190147 88.6928)">Extraction answers</text>
   </g>
   <g id="legend_2">
    <g id="patch_36">
     <path d="M 575.390147 104.583246 
L 591.390147 104.583246 
L 591.390147 98.983246 
L 575.390147 98.983246 
z
" style="fill: #247c78; stroke: #247c78; stroke-linejoin: miter"/>
    </g>
    <g id="text_51">
     <text style="font-size: 8px; font-family: 'DejaVu Sans'; text-anchor: start" x="597.790147" y="104.583246" transform="rotate(-0 597.790147 104.583246)">Correct</text>
    </g>
    <g id="patch_37">
     <path d="M 575.390147 116.325746 
L 591.390147 116.325746 
L 591.390147 110.725746 
L 575.390147 110.725746 
z
" style="fill: #e8b557; stroke: #e8b557; stroke-linejoin: miter"/>
    </g>
    <g id="text_52">
     <text style="font-size: 8px; font-family: 'DejaVu Sans'; text-anchor: start" x="597.790147" y="116.325746" transform="rotate(-0 597.790147 116.325746)">Partial</text>
    </g>
    <g id="patch_38">
     <path d="M 642.986397 104.583246 
L 658.986397 104.583246 
L 658.986397 98.983246 
L 642.986397 98.983246 
z
" style="fill: #bb5356; stroke: #bb5356; stroke-linejoin: miter"/>
    </g>
    <g id="text_53">
     <text style="font-size: 8px; font-family: 'DejaVu Sans'; text-anchor: start" x="665.386397" y="104.583246" transform="rotate(-0 665.386397 104.583246)">Contradiction</text>
    </g>
    <g id="patch_39">
     <path d="M 642.986397 116.325746 
L 658.986397 116.325746 
L 658.986397 110.725746 
L 642.986397 110.725746 
z
" style="fill: #8571a7; stroke: #8571a7; stroke-linejoin: miter"/>
    </g>
    <g id="text_54">
     <text style="font-size: 8px; font-family: 'DejaVu Sans'; text-anchor: start" x="665.386397" y="116.325746" transform="rotate(-0 665.386397 116.325746)">Other</text>
    </g>
   </g>
  </g>
  <g id="axes_3">
   <g id="patch_40">
    <path d="M 845.573725 362.2464 
L 1058.4 362.2464 
L 1058.4 128.6928 
L 845.573725 128.6928 
z
" style="fill: #ffffff"/>
   </g>
   <g id="matplotlib.axis_5">
    <g id="xtick_11">
     <g id="line2d_34">
      <path d="M 845.573725 362.2464 
L 845.573725 128.6928 
" clip-path="url(#pd07319b55a)" style="fill: none; stroke: #b0b0b0; stroke-opacity: 0.15; stroke-width: 0.8; stroke-linecap: square"/>
     </g>
     <g id="line2d_35">
      <g>
       <use xlink:href="#m55345e68ae" x="845.573725" y="362.2464" style="stroke: #000000; stroke-width: 0.8"/>
      </g>
     </g>
     <g id="text_55">
      <text style="font-size: 10px; font-family: 'DejaVu Sans'; text-anchor: middle" x="845.573725" y="376.844837" transform="rotate(-0 845.573725 376.844837)">0</text>
     </g>
    </g>
    <g id="xtick_12">
     <g id="line2d_36">
      <path d="M 898.780294 362.2464 
L 898.780294 128.6928 
" clip-path="url(#pd07319b55a)" style="fill: none; stroke: #b0b0b0; stroke-opacity: 0.15; stroke-width: 0.8; stroke-linecap: square"/>
     </g>
     <g id="line2d_37">
      <g>
       <use xlink:href="#m55345e68ae" x="898.780294" y="362.2464" style="stroke: #000000; stroke-width: 0.8"/>
      </g>
     </g>
     <g id="text_56">
      <text style="font-size: 10px; font-family: 'DejaVu Sans'; text-anchor: middle" x="898.780294" y="376.844837" transform="rotate(-0 898.780294 376.844837)">4</text>
     </g>
    </g>
    <g id="xtick_13">
     <g id="line2d_38">
      <path d="M 951.986863 362.2464 
L 951.986863 128.6928 
" clip-path="url(#pd07319b55a)" style="fill: none; stroke: #b0b0b0; stroke-opacity: 0.15; stroke-width: 0.8; stroke-linecap: square"/>
     </g>
     <g id="line2d_39">
      <g>
       <use xlink:href="#m55345e68ae" x="951.986863" y="362.2464" style="stroke: #000000; stroke-width: 0.8"/>
      </g>
     </g>
     <g id="text_57">
      <text style="font-size: 10px; font-family: 'DejaVu Sans'; text-anchor: middle" x="951.986863" y="376.844837" transform="rotate(-0 951.986863 376.844837)">8</text>
     </g>
    </g>
    <g id="xtick_14">
     <g id="line2d_40">
      <path d="M 1005.193431 362.2464 
L 1005.193431 128.6928 
" clip-path="url(#pd07319b55a)" style="fill: none; stroke: #b0b0b0; stroke-opacity: 0.15; stroke-width: 0.8; stroke-linecap: square"/>
     </g>
     <g id="line2d_41">
      <g>
       <use xlink:href="#m55345e68ae" x="1005.193431" y="362.2464" style="stroke: #000000; stroke-width: 0.8"/>
      </g>
     </g>
     <g id="text_58">
      <text style="font-size: 10px; font-family: 'DejaVu Sans'; text-anchor: middle" x="1005.193431" y="376.844837" transform="rotate(-0 1005.193431 376.844837)">12</text>
     </g>
    </g>
    <g id="xtick_15">
     <g id="line2d_42">
      <path d="M 1058.4 362.2464 
L 1058.4 128.6928 
" clip-path="url(#pd07319b55a)" style="fill: none; stroke: #b0b0b0; stroke-opacity: 0.15; stroke-width: 0.8; stroke-linecap: square"/>
     </g>
     <g id="line2d_43">
      <g>
       <use xlink:href="#m55345e68ae" x="1058.4" y="362.2464" style="stroke: #000000; stroke-width: 0.8"/>
      </g>
     </g>
     <g id="text_59">
      <text style="font-size: 10px; font-family: 'DejaVu Sans'; text-anchor: middle" x="1058.4" y="376.844837" transform="rotate(-0 1058.4 376.844837)">16</text>
     </g>
    </g>
    <g id="text_60">
     <text style="font-size: 10px; font-family: 'DejaVu Sans'; text-anchor: middle" x="951.986863" y="390.522963" transform="rotate(-0 951.986863 390.522963)">16 compound source units</text>
    </g>
   </g>
   <g id="matplotlib.axis_6">
    <g id="ytick_13">
     <g id="line2d_44"/>
    </g>
    <g id="ytick_14">
     <g id="line2d_45"/>
    </g>
    <g id="ytick_15">
     <g id="line2d_46"/>
    </g>
    <g id="ytick_16">
     <g id="line2d_47"/>
    </g>
    <g id="ytick_17">
     <g id="line2d_48"/>
    </g>
    <g id="ytick_18">
     <g id="line2d_49"/>
    </g>
   </g>
   <g id="patch_41">
    <path d="M 845.573725 140.456556 
L 885.478652 140.456556 
L 885.478652 159.202054 
L 845.573725 159.202054 
z
" clip-path="url(#pd07319b55a)" style="fill: #247c78"/>
   </g>
   <g id="patch_42">
    <path d="M 885.478652 140.456556 
L 1005.193431 140.456556 
L 1005.193431 159.202054 
L 885.478652 159.202054 
z
" clip-path="url(#pd07319b55a)" style="fill: #e8b557"/>
   </g>
   <g id="patch_43">
    <path d="M 1005.193431 140.456556 
L 1058.4 140.456556 
L 1058.4 159.202054 
L 1005.193431 159.202054 
z
" clip-path="url(#pd07319b55a)" style="fill: #dbe1e6"/>
   </g>
   <g id="patch_44">
    <path d="M 845.573725 178.712674 
L 885.478652 178.712674 
L 885.478652 197.458172 
L 845.573725 197.458172 
z
" clip-path="url(#pd07319b55a)" style="fill: #247c78"/>
   </g>
   <g id="patch_45">
    <path d="M 885.478652 178.712674 
L 1005.193431 178.712674 
L 1005.193431 197.458172 
L 885.478652 197.458172 
z
" clip-path="url(#pd07319b55a)" style="fill: #e8b557"/>
   </g>
   <g id="patch_46">
    <path d="M 1005.193431 178.712674 
L 1058.4 178.712674 
L 1058.4 197.458172 
L 1005.193431 197.458172 
z
" clip-path="url(#pd07319b55a)" style="fill: #dbe1e6"/>
   </g>
   <g id="patch_47">
    <path d="M 845.573725 216.968792 
L 858.875367 216.968792 
L 858.875367 235.71429 
L 845.573725 235.71429 
z
" clip-path="url(#pd07319b55a)" style="fill: #247c78"/>
   </g>
   <g id="patch_48">
    <path d="M 858.875367 216.968792 
L 991.891789 216.968792 
L 991.891789 235.71429 
L 858.875367 235.71429 
z
" clip-path="url(#pd07319b55a)" style="fill: #e8b557"/>
   </g>
   <g id="patch_49">
    <path d="M 991.891789 216.968792 
L 1058.4 216.968792 
L 1058.4 235.71429 
L 991.891789 235.71429 
z
" clip-path="url(#pd07319b55a)" style="fill: #dbe1e6"/>
   </g>
   <g id="patch_50">
    <path d="M 845.573725 255.22491 
L 898.780294 255.22491 
L 898.780294 273.970408 
L 845.573725 273.970408 
z
" clip-path="url(#pd07319b55a)" style="fill: #247c78"/>
   </g>
   <g id="patch_51">
    <path d="M 898.780294 255.22491 
L 1018.495073 255.22491 
L 1018.495073 273.970408 
L 898.780294 273.970408 
z
" clip-path="url(#pd07319b55a)" style="fill: #e8b557"/>
   </g>
   <g id="patch_52">
    <path d="M 1018.495073 255.22491 
L 1058.4 255.22491 
L 1058.4 273.970408 
L 1018.495073 273.970408 
z
" clip-path="url(#pd07319b55a)" style="fill: #dbe1e6"/>
   </g>
   <g id="patch_53">
    <path d="M 845.573725 293.481028 
L 925.383578 293.481028 
L 925.383578 312.226526 
L 845.573725 312.226526 
z
" clip-path="url(#pd07319b55a)" style="fill: #247c78"/>
   </g>
   <g id="patch_54">
    <path d="M 925.383578 293.481028 
L 1018.495073 293.481028 
L 1018.495073 312.226526 
L 925.383578 312.226526 
z
" clip-path="url(#pd07319b55a)" style="fill: #e8b557"/>
   </g>
   <g id="patch_55">
    <path d="M 1018.495073 293.481028 
L 1058.4 293.481028 
L 1058.4 312.226526 
L 1018.495073 312.226526 
z
" clip-path="url(#pd07319b55a)" style="fill: #dbe1e6"/>
   </g>
   <g id="patch_56">
    <path d="M 845.573725 331.737146 
L 898.780294 331.737146 
L 898.780294 350.482644 
L 845.573725 350.482644 
z
" clip-path="url(#pd07319b55a)" style="fill: #247c78"/>
   </g>
   <g id="patch_57">
    <path d="M 898.780294 331.737146 
L 912.081936 331.737146 
L 912.081936 350.482644 
L 898.780294 350.482644 
z
" clip-path="url(#pd07319b55a)" style="fill: #e8b557"/>
   </g>
   <g id="patch_58">
    <path d="M 912.081936 331.737146 
L 1058.4 331.737146 
L 1058.4 350.482644 
L 912.081936 350.482644 
z
" clip-path="url(#pd07319b55a)" style="fill: #dbe1e6"/>
   </g>
   <g id="patch_59">
    <path d="M 845.573725 362.2464 
L 1058.4 362.2464 
" style="fill: none; stroke: #cbd2d9; stroke-width: 0.8; stroke-linejoin: miter; stroke-linecap: square"/>
   </g>
   <g id="text_61">
    <text style="font-size: 9px; font-family: 'DejaVu Sans'; text-anchor: middle; fill: #ffffff" x="865.526188" y="152.312743" transform="rotate(-0 865.526188 152.312743)">3</text>
   </g>
   <g id="text_62">
    <text style="font-size: 9px; font-family: 'DejaVu Sans'; text-anchor: middle; fill: #29343b" x="945.336041" y="152.312743" transform="rotate(-0 945.336041 152.312743)">9</text>
   </g>
   <g id="text_63">
    <text style="font-size: 9px; font-family: 'DejaVu Sans'; text-anchor: middle; fill: #29343b" x="1031.796716" y="152.312743" transform="rotate(-0 1031.796716 152.312743)">4</text>
   </g>
   <g id="text_64">
    <text style="font-size: 9px; font-family: 'DejaVu Sans'; text-anchor: middle; fill: #ffffff" x="865.526188" y="190.568861" transform="rotate(-0 865.526188 190.568861)">3</text>
   </g>
   <g id="text_65">
    <text style="font-size: 9px; font-family: 'DejaVu Sans'; text-anchor: middle; fill: #29343b" x="945.336041" y="190.568861" transform="rotate(-0 945.336041 190.568861)">9</text>
   </g>
   <g id="text_66">
    <text style="font-size: 9px; font-family: 'DejaVu Sans'; text-anchor: middle; fill: #29343b" x="1031.796716" y="190.568861" transform="rotate(-0 1031.796716 190.568861)">4</text>
   </g>
   <g id="text_67">
    <text style="font-size: 9px; font-family: 'DejaVu Sans'; text-anchor: middle; fill: #ffffff" x="852.224546" y="228.824979" transform="rotate(-0 852.224546 228.824979)">1</text>
   </g>
   <g id="text_68">
    <text style="font-size: 9px; font-family: 'DejaVu Sans'; text-anchor: middle; fill: #29343b" x="925.383578" y="228.824979" transform="rotate(-0 925.383578 228.824979)">10</text>
   </g>
   <g id="text_69">
    <text style="font-size: 9px; font-family: 'DejaVu Sans'; text-anchor: middle; fill: #29343b" x="1025.145895" y="228.824979" transform="rotate(-0 1025.145895 228.824979)">5</text>
   </g>
   <g id="text_70">
    <text style="font-size: 9px; font-family: 'DejaVu Sans'; text-anchor: middle; fill: #ffffff" x="872.17701" y="267.081096" transform="rotate(-0 872.17701 267.081096)">4</text>
   </g>
   <g id="text_71">
    <text style="font-size: 9px; font-family: 'DejaVu Sans'; text-anchor: middle; fill: #29343b" x="958.637684" y="267.081096" transform="rotate(-0 958.637684 267.081096)">9</text>
   </g>
   <g id="text_72">
    <text style="font-size: 9px; font-family: 'DejaVu Sans'; text-anchor: middle; fill: #29343b" x="1038.447537" y="267.081096" transform="rotate(-0 1038.447537 267.081096)">3</text>
   </g>
   <g id="text_73">
    <text style="font-size: 9px; font-family: 'DejaVu Sans'; text-anchor: middle; fill: #ffffff" x="885.478652" y="305.337214" transform="rotate(-0 885.478652 305.337214)">6</text>
   </g>
   <g id="text_74">
    <text style="font-size: 9px; font-family: 'DejaVu Sans'; text-anchor: middle; fill: #29343b" x="971.939326" y="305.337214" transform="rotate(-0 971.939326 305.337214)">7</text>
   </g>
   <g id="text_75">
    <text style="font-size: 9px; font-family: 'DejaVu Sans'; text-anchor: middle; fill: #29343b" x="1038.447537" y="305.337214" transform="rotate(-0 1038.447537 305.337214)">3</text>
   </g>
   <g id="text_76">
    <text style="font-size: 9px; font-family: 'DejaVu Sans'; text-anchor: middle; fill: #ffffff" x="872.17701" y="343.593332" transform="rotate(-0 872.17701 343.593332)">4</text>
   </g>
   <g id="text_77">
    <text style="font-size: 9px; font-family: 'DejaVu Sans'; text-anchor: middle; fill: #29343b" x="905.431115" y="343.593332" transform="rotate(-0 905.431115 343.593332)">1</text>
   </g>
   <g id="text_78">
    <text style="font-size: 9px; font-family: 'DejaVu Sans'; text-anchor: middle; fill: #29343b" x="985.240968" y="343.593332" transform="rotate(-0 985.240968 343.593332)">11</text>
   </g>
   <g id="text_79">
    <text style="font-weight: 700; font-size: 12px; font-family: 'DejaVu Sans'; text-anchor: start" x="845.573725" y="88.6928" transform="rotate(-0 845.573725 88.6928)">Full-source coverage</text>
   </g>
   <g id="legend_3">
    <g id="patch_60">
     <path d="M 852.773725 104.583246 
L 868.773725 104.583246 
L 868.773725 98.983246 
L 852.773725 98.983246 
z
" style="fill: #247c78; stroke: #247c78; stroke-linejoin: miter"/>
    </g>
    <g id="text_80">
     <text style="font-size: 8px; font-family: 'DejaVu Sans'; text-anchor: start" x="875.173725" y="104.583246" transform="rotate(-0 875.173725 104.583246)">Covered</text>
    </g>
    <g id="patch_61">
     <path d="M 852.773725 116.325746 
L 868.773725 116.325746 
L 868.773725 110.725746 
L 852.773725 110.725746 
z
" style="fill: #e8b557; stroke: #e8b557; stroke-linejoin: miter"/>
    </g>
    <g id="text_81">
     <text style="font-size: 8px; font-family: 'DejaVu Sans'; text-anchor: start" x="875.173725" y="116.325746" transform="rotate(-0 875.173725 116.325746)">Partial</text>
    </g>
    <g id="patch_62">
     <path d="M 924.422475 104.583246 
L 940.422475 104.583246 
L 940.422475 98.983246 
L 924.422475 98.983246 
z
" style="fill: #dbe1e6; stroke: #dbe1e6; stroke-linejoin: miter"/>
    </g>
    <g id="text_82">
     <text style="font-size: 8px; font-family: 'DejaVu Sans'; text-anchor: start" x="946.822475" y="104.583246" transform="rotate(-0 946.822475 104.583246)">Omitted</text>
    </g>
   </g>
  </g>
  <g id="text_83">
   <text style="font-weight: 700; font-size: 21px; font-family: 'DejaVu Sans'; text-anchor: start" x="37.8" y="35.022319" transform="rotate(-0 37.8 35.022319)">M4 Max: research speed and source fidelity</text>
  </g>
  <g id="text_84">
   <text style="font-size: 11px; font-family: 'DejaVu Sans'; text-anchor: start; fill: #4b5563" x="37.8" y="52.4304" transform="rotate(-0 37.8 52.4304)">64 GiB unified memory · Downloads active · Completed reviews only; campaign in progress</text>
  </g>
  <g id="text_85">
   <text style="font-size: 10px; font-family: 'DejaVu Sans'; text-anchor: start; fill: #4b5563" x="37.8" y="409.9104" transform="rotate(-0 37.8 409.9104)">Ten held-out requests per battery; Qwen8 GGUF repeated separately. Wall rate excludes startup and inter-request work.</text>
  </g>
  <g id="text_86">
   <text style="font-size: 10px; font-family: 'DejaVu Sans'; text-anchor: start; fill: #4b5563" x="37.8" y="431.3592" transform="rotate(-0 37.8 431.3592)">MLX uses different weights, quantization and cache behavior. These observations do not isolate backend or hardware effects.</text>
  </g>
  <g id="text_87">
   <text style="font-size: 10px; font-family: 'DejaVu Sans'; text-anchor: start; fill: #4b5563" x="37.8" y="452.808" transform="rotate(-0 37.8 452.808)">Source fidelity: Codex-assisted review, no independent human adjudication. Coverage, citations and factual errors remain separate.</text>
  </g>
 </g>
 <defs>
  <clipPath id="p8a953a0768">
   <rect x="237.6" y="128.6928" width="266.032844" height="233.5536"/>
  </clipPath>
  <clipPath id="pc645844fd0">
   <rect x="568.190147" y="128.6928" width="212.826275" height="233.5536"/>
  </clipPath>
  <clipPath id="pd07319b55a">
   <rect x="845.573725" y="128.6928" width="212.826275" height="233.5536"/>
  </clipPath>
 </defs>
</svg>
