<?xml version="1.0" encoding="utf-8" standalone="no"?>
<!DOCTYPE svg PUBLIC "-//W3C//DTD SVG 1.1//EN"
  "http://www.w3.org/Graphics/SVG/1.1/DTD/svg11.dtd">
<svg xmlns:xlink="http://www.w3.org/1999/xlink" width="1080pt" height="558.72pt" viewBox="0 0 1080 558.72" xmlns="http://www.w3.org/2000/svg" version="1.1">
 <metadata>
  <rdf:RDF xmlns:dc="http://purl.org/dc/elements/1.1/" xmlns:cc="http://creativecommons.org/ns#" xmlns:rdf="http://www.w3.org/1999/02/22-rdf-syntax-ns#">
   <cc:Work>
    <dc:type rdf:resource="http://purl.org/dc/dcmitype/StillImage"/>
    <dc:date>2026-09-10T13:46:54.428140</dc:date>
    <dc:format>image/svg+xml</dc:format>
    <dc:creator>
     <cc:Agent>
      <dc:title>Matplotlib v3.10.8, https://matplotlib.org/</dc:title>
     </cc:Agent>
    </dc:creator>
   </cc:Work>
  </rdf:RDF>
 </metadata>
 <defs>
  <style type="text/css">*{stroke-linejoin: round; stroke-linecap: butt}</style>
 </defs>
 <g id="figure_1">
  <g id="patch_1">
   <path d="M 0 558.72 
L 1080 558.72 
L 1080 0 
L 0 0 
z
" style="fill: #ffffff"/>
  </g>
  <g id="axes_1">
   <g id="patch_2">
    <path d="M 237.6 424.6272 
L 503.632844 424.6272 
L 503.632844 150.8544 
L 237.6 150.8544 
z
" style="fill: #ffffff"/>
   </g>
   <g id="matplotlib.axis_1">
    <g id="xtick_1">
     <g id="line2d_1">
      <path d="M 237.6 424.6272 
L 237.6 150.8544 
" clip-path="url(#pbafd287e67)" style="fill: none; stroke: #b0b0b0; stroke-opacity: 0.15; stroke-width: 0.8; stroke-linecap: square"/>
     </g>
     <g id="line2d_2">
      <defs>
       <path id="m040e3889a8" d="M 0 0 
L 0 3.5 
" style="stroke: #000000; stroke-width: 0.8"/>
      </defs>
      <g>
       <use xlink:href="#m040e3889a8" x="237.6" y="424.6272" style="stroke: #000000; stroke-width: 0.8"/>
      </g>
     </g>
     <g id="text_1">
      <text style="font-size: 10px; font-family: 'DejaVu Sans'; text-anchor: middle" x="237.6" y="439.225638" transform="rotate(-0 237.6 439.225638)">0</text>
     </g>
    </g>
    <g id="xtick_2">
     <g id="line2d_3">
      <path d="M 291.274261 424.6272 
L 291.274261 150.8544 
" clip-path="url(#pbafd287e67)" style="fill: none; stroke: #b0b0b0; stroke-opacity: 0.15; stroke-width: 0.8; stroke-linecap: square"/>
     </g>
     <g id="line2d_4">
      <g>
       <use xlink:href="#m040e3889a8" x="291.274261" y="424.6272" style="stroke: #000000; stroke-width: 0.8"/>
      </g>
     </g>
     <g id="text_2">
      <text style="font-size: 10px; font-family: 'DejaVu Sans'; text-anchor: middle" x="291.274261" y="439.225638" transform="rotate(-0 291.274261 439.225638)">20</text>
     </g>
    </g>
    <g id="xtick_3">
     <g id="line2d_5">
      <path d="M 344.948523 424.6272 
L 344.948523 150.8544 
" clip-path="url(#pbafd287e67)" style="fill: none; stroke: #b0b0b0; stroke-opacity: 0.15; stroke-width: 0.8; stroke-linecap: square"/>
     </g>
     <g id="line2d_6">
      <g>
       <use xlink:href="#m040e3889a8" x="344.948523" y="424.6272" style="stroke: #000000; stroke-width: 0.8"/>
      </g>
     </g>
     <g id="text_3">
      <text style="font-size: 10px; font-family: 'DejaVu Sans'; text-anchor: middle" x="344.948523" y="439.225638" transform="rotate(-0 344.948523 439.225638)">40</text>
     </g>
    </g>
    <g id="xtick_4">
     <g id="line2d_7">
      <path d="M 398.622784 424.6272 
L 398.622784 150.8544 
" clip-path="url(#pbafd287e67)" style="fill: none; stroke: #b0b0b0; stroke-opacity: 0.15; stroke-width: 0.8; stroke-linecap: square"/>
     </g>
     <g id="line2d_8">
      <g>
       <use xlink:href="#m040e3889a8" x="398.622784" y="424.6272" style="stroke: #000000; stroke-width: 0.8"/>
      </g>
     </g>
     <g id="text_4">
      <text style="font-size: 10px; font-family: 'DejaVu Sans'; text-anchor: middle" x="398.622784" y="439.225638" transform="rotate(-0 398.622784 439.225638)">60</text>
     </g>
    </g>
    <g id="xtick_5">
     <g id="line2d_9">
      <path d="M 452.297046 424.6272 
L 452.297046 150.8544 
" clip-path="url(#pbafd287e67)" style="fill: none; stroke: #b0b0b0; stroke-opacity: 0.15; stroke-width: 0.8; stroke-linecap: square"/>
     </g>
     <g id="line2d_10">
      <g>
       <use xlink:href="#m040e3889a8" x="452.297046" y="424.6272" style="stroke: #000000; stroke-width: 0.8"/>
      </g>
     </g>
     <g id="text_5">
      <text style="font-size: 10px; font-family: 'DejaVu Sans'; text-anchor: middle" x="452.297046" y="439.225638" transform="rotate(-0 452.297046 439.225638)">80</text>
     </g>
    </g>
    <g id="text_6">
     <text style="font-size: 10px; font-family: 'DejaVu Sans'; text-anchor: middle" x="370.616422" y="452.903763" transform="rotate(-0 370.616422 452.903763)">tokens / second · dotted line = 40</text>
    </g>
   </g>
   <g id="matplotlib.axis_2">
    <g id="ytick_1">
     <g id="line2d_11"/>
     <g id="text_7">
      <text style="font-size: 10px; font-family: 'DejaVu Sans'; text-anchor: end" x="234.1" y="176.163161" transform="rotate(-0 234.1 176.163161)">Qwen3 8B · GGUF</text>
     </g>
    </g>
    <g id="ytick_2">
     <g id="line2d_12"/>
     <g id="text_8">
      <text style="font-size: 10px; font-family: 'DejaVu Sans'; text-anchor: end" x="234.1" y="209.127978" transform="rotate(-0 234.1 209.127978)">Qwen3 8B · GGUF repeat</text>
     </g>
    </g>
    <g id="ytick_3">
     <g id="line2d_13"/>
     <g id="text_9">
      <text style="font-size: 10px; font-family: 'DejaVu Sans'; text-anchor: end" x="234.1" y="242.092794" transform="rotate(-0 234.1 242.092794)">Qwen3 8B · MLX four-bit</text>
     </g>
    </g>
    <g id="ytick_4">
     <g id="line2d_14"/>
     <g id="text_10">
      <text style="font-size: 10px; font-family: 'DejaVu Sans'; text-anchor: end" x="234.1" y="275.057611" transform="rotate(-0 234.1 275.057611)">Qwen3.6 35B · GGUF</text>
     </g>
    </g>
    <g id="ytick_5">
     <g id="line2d_15"/>
     <g id="text_11">
      <text style="font-size: 10px; font-family: 'DejaVu Sans'; text-anchor: end" x="234.1" y="308.022427" transform="rotate(-0 234.1 308.022427)">Gemma4 26B · GGUF</text>
     </g>
    </g>
    <g id="ytick_6">
     <g id="line2d_16"/>
     <g id="text_12">
      <text style="font-size: 10px; font-family: 'DejaVu Sans'; text-anchor: end" x="234.1" y="340.987243" transform="rotate(-0 234.1 340.987243)">Qwen3.8 27B · GGUF</text>
     </g>
    </g>
    <g id="ytick_7">
     <g id="line2d_17"/>
     <g id="text_13">
      <text style="font-size: 10px; font-family: 'DejaVu Sans'; text-anchor: end" x="234.1" y="373.95206" transform="rotate(-0 234.1 373.95206)">Nemotron 49B · GGUF</text>
     </g>
    </g>
    <g id="ytick_8">
     <g id="line2d_18"/>
     <g id="text_14">
      <text style="font-size: 10px; font-family: 'DejaVu Sans'; text-anchor: end" x="234.1" y="406.828595" transform="rotate(-0 234.1 406.828595)">Qwen3.5 122B · IQ2_XXS</text>
     </g>
    </g>
   </g>
   <g id="patch_3">
    <path d="M 237.6 163.298618 
L 341.587045 163.298618 
L 341.587045 171.539822 
L 237.6 171.539822 
z
" clip-path="url(#pbafd287e67)" style="fill: #386ca2"/>
   </g>
   <g id="patch_4">
    <path d="M 237.6 173.188063 
L 295.592537 173.188063 
L 295.592537 181.429267 
L 237.6 181.429267 
z
" clip-path="url(#pbafd287e67)" style="fill: #5ba5b0"/>
   </g>
   <g id="patch_5">
    <path d="M 237.6 196.263435 
L 400.783782 196.263435 
L 400.783782 204.504639 
L 237.6 204.504639 
z
" clip-path="url(#pbafd287e67)" style="fill: #386ca2"/>
   </g>
   <g id="patch_6">
    <path d="M 237.6 206.152879 
L 325.877671 206.152879 
L 325.877671 214.394084 
L 237.6 214.394084 
z
" clip-path="url(#pbafd287e67)" style="fill: #5ba5b0"/>
   </g>
   <g id="patch_7">
    <path d="M 237.6 229.228251 
L 433.794693 229.228251 
L 433.794693 237.469455 
L 237.6 237.469455 
z
" clip-path="url(#pbafd287e67)" style="fill: #386ca2"/>
   </g>
   <g id="patch_8">
    <path d="M 237.6 239.117696 
L 323.585254 239.117696 
L 323.585254 247.3589 
L 237.6 247.3589 
z
" clip-path="url(#pbafd287e67)" style="fill: #5ba5b0"/>
   </g>
   <g id="patch_9">
    <path d="M 237.6 262.193067 
L 439.519931 262.193067 
L 439.519931 270.434271 
L 237.6 270.434271 
z
" clip-path="url(#pbafd287e67)" style="fill: #386ca2"/>
   </g>
   <g id="patch_10">
    <path d="M 237.6 272.082512 
L 363.230421 272.082512 
L 363.230421 280.323716 
L 237.6 280.323716 
z
" clip-path="url(#pbafd287e67)" style="fill: #5ba5b0"/>
   </g>
   <g id="patch_11">
    <path d="M 237.6 295.157884 
L 466.938658 295.157884 
L 466.938658 303.399088 
L 237.6 303.399088 
z
" clip-path="url(#pbafd287e67)" style="fill: #386ca2"/>
   </g>
   <g id="patch_12">
    <path d="M 237.6 305.047329 
L 368.880613 305.047329 
L 368.880613 313.288533 
L 237.6 313.288533 
z
" clip-path="url(#pbafd287e67)" style="fill: #5ba5b0"/>
   </g>
   <g id="patch_13">
    <path d="M 237.6 328.1227 
L 277.548343 328.1227 
L 277.548343 336.363904 
L 237.6 336.363904 
z
" clip-path="url(#pbafd287e67)" style="fill: #386ca2"/>
   </g>
   <g id="patch_14">
    <path d="M 237.6 338.012145 
L 261.819968 338.012145 
L 261.819968 346.253349 
L 237.6 346.253349 
z
" clip-path="url(#pbafd287e67)" style="fill: #5ba5b0"/>
   </g>
   <g id="patch_15">
    <path d="M 237.6 361.087516 
L 262.47341 361.087516 
L 262.47341 369.328721 
L 237.6 369.328721 
z
" clip-path="url(#pbafd287e67)" style="fill: #386ca2"/>
   </g>
   <g id="patch_16">
    <path d="M 237.6 370.976961 
L 251.535613 370.976961 
L 251.535613 379.218165 
L 237.6 379.218165 
z
" clip-path="url(#pbafd287e67)" style="fill: #5ba5b0"/>
   </g>
   <g id="patch_17">
    <path d="M 237.6 394.052333 
L 327.837114 394.052333 
L 327.837114 402.293537 
L 237.6 402.293537 
z
" clip-path="url(#pbafd287e67)" style="fill: #386ca2"/>
   </g>
   <g id="patch_18">
    <path d="M 237.6 403.941778 
L 284.793347 403.941778 
L 284.793347 412.182982 
L 237.6 412.182982 
z
" clip-path="url(#pbafd287e67)" style="fill: #5ba5b0"/>
   </g>
   <g id="line2d_19">
    <path d="M 344.948523 424.6272 
L 344.948523 150.8544 
" clip-path="url(#pbafd287e67)" style="fill: none; stroke-dasharray: 1,1.65; stroke-dashoffset: 0; stroke: #6d7781"/>
   </g>
   <g id="patch_19">
    <path d="M 237.6 424.6272 
L 503.632844 424.6272 
" style="fill: none; stroke: #cbd2d9; stroke-width: 0.8; stroke-linejoin: miter; stroke-linecap: square"/>
   </g>
   <g id="text_15">
    <text style="font-size: 9px; font-family: 'DejaVu Sans'; text-anchor: start" x="344.270758" y="169.902658" transform="rotate(-0 344.270758 169.902658)">38.7</text>
   </g>
   <g id="text_16">
    <text style="font-size: 9px; font-family: 'DejaVu Sans'; text-anchor: start" x="298.27625" y="179.792103" transform="rotate(-0 298.27625 179.792103)">21.6</text>
   </g>
   <g id="text_17">
    <text style="font-size: 9px; font-family: 'DejaVu Sans'; text-anchor: start" x="403.467495" y="202.867474" transform="rotate(-0 403.467495 202.867474)">60.8</text>
   </g>
   <g id="text_18">
    <text style="font-size: 9px; font-family: 'DejaVu Sans'; text-anchor: start" x="328.561385" y="212.756919" transform="rotate(-0 328.561385 212.756919)">32.9</text>
   </g>
   <g id="text_19">
    <text style="font-size: 9px; font-family: 'DejaVu Sans'; text-anchor: start" x="436.478406" y="235.83229" transform="rotate(-0 436.478406 235.83229)">73.1</text>
   </g>
   <g id="text_20">
    <text style="font-size: 9px; font-family: 'DejaVu Sans'; text-anchor: start" x="326.268967" y="245.721735" transform="rotate(-0 326.268967 245.721735)">32.0</text>
   </g>
   <g id="text_21">
    <text style="font-size: 9px; font-family: 'DejaVu Sans'; text-anchor: start" x="442.203644" y="268.797107" transform="rotate(-0 442.203644 268.797107)">75.2</text>
   </g>
   <g id="text_22">
    <text style="font-size: 9px; font-family: 'DejaVu Sans'; text-anchor: start" x="365.914134" y="278.686552" transform="rotate(-0 365.914134 278.686552)">46.8</text>
   </g>
   <g id="text_23">
    <text style="font-size: 9px; font-family: 'DejaVu Sans'; text-anchor: start" x="469.622371" y="301.761923" transform="rotate(-0 469.622371 301.761923)">85.5</text>
   </g>
   <g id="text_24">
    <text style="font-size: 9px; font-family: 'DejaVu Sans'; text-anchor: start" x="371.564326" y="311.651368" transform="rotate(-0 371.564326 311.651368)">48.9</text>
   </g>
   <g id="text_25">
    <text style="font-size: 9px; font-family: 'DejaVu Sans'; text-anchor: start" x="280.232056" y="334.72674" transform="rotate(-0 280.232056 334.72674)">14.9</text>
   </g>
   <g id="text_26">
    <text style="font-size: 9px; font-family: 'DejaVu Sans'; text-anchor: start" x="264.503681" y="344.616185" transform="rotate(-0 264.503681 344.616185)">9.0</text>
   </g>
   <g id="text_27">
    <text style="font-size: 9px; font-family: 'DejaVu Sans'; text-anchor: start" x="265.157123" y="367.691556" transform="rotate(-0 265.157123 367.691556)">9.3</text>
   </g>
   <g id="text_28">
    <text style="font-size: 9px; font-family: 'DejaVu Sans'; text-anchor: start" x="254.219326" y="377.581001" transform="rotate(-0 254.219326 377.581001)">5.2</text>
   </g>
   <g id="text_29">
    <text style="font-size: 9px; font-family: 'DejaVu Sans'; text-anchor: start" x="330.520827" y="400.656372" transform="rotate(-0 330.520827 400.656372)">33.6</text>
   </g>
   <g id="text_30">
    <text style="font-size: 9px; font-family: 'DejaVu Sans'; text-anchor: start" x="287.47706" y="410.545817" transform="rotate(-0 287.47706 410.545817)">17.6</text>
   </g>
   <g id="text_31">
    <text style="font-weight: 700; font-size: 12px; font-family: 'DejaVu Sans'; text-anchor: start" x="237.6" y="110.8544" transform="rotate(-0 237.6 110.8544)">Actual source workload</text>
   </g>
   <g id="legend_1">
    <g id="patch_20">
     <path d="M 244.8 126.141558 
L 260.8 126.141558 
L 260.8 120.541558 
L 244.8 120.541558 
z
" style="fill: #386ca2; stroke: #386ca2; stroke-linejoin: miter"/>
    </g>
    <g id="text_32">
     <text style="font-size: 8px; font-family: 'DejaVu Sans'; text-anchor: start" x="267.2" y="126.141558" transform="rotate(-0 267.2 126.141558)">Visible phase</text>
    </g>
    <g id="patch_21">
     <path d="M 244.8 137.884058 
L 260.8 137.884058 
L 260.8 132.284058 
L 244.8 132.284058 
z
" style="fill: #5ba5b0; stroke: #5ba5b0; stroke-linejoin: miter"/>
    </g>
    <g id="text_33">
     <text style="font-size: 8px; font-family: 'DejaVu Sans'; text-anchor: start" x="267.2" y="137.884058" transform="rotate(-0 267.2 137.884058)">Including prompt processing</text>
    </g>
   </g>
  </g>
  <g id="axes_2">
   <g id="patch_22">
    <path d="M 568.190147 424.6272 
L 781.016422 424.6272 
L 781.016422 150.8544 
L 568.190147 150.8544 
z
" style="fill: #ffffff"/>
   </g>
   <g id="matplotlib.axis_3">
    <g id="xtick_6">
     <g id="line2d_20">
      <path d="M 568.190147 424.6272 
L 568.190147 150.8544 
" clip-path="url(#p42a20b718d)" style="fill: none; stroke: #b0b0b0; stroke-opacity: 0.15; stroke-width: 0.8; stroke-linecap: square"/>
     </g>
     <g id="line2d_21">
      <g>
       <use xlink:href="#m040e3889a8" x="568.190147" y="424.6272" style="stroke: #000000; stroke-width: 0.8"/>
      </g>
     </g>
     <g id="text_34">
      <text style="font-size: 10px; font-family: 'DejaVu Sans'; text-anchor: middle" x="568.190147" y="439.225638" transform="rotate(-0 568.190147 439.225638)">0</text>
     </g>
    </g>
    <g id="xtick_7">
     <g id="line2d_22">
      <path d="M 621.396716 424.6272 
L 621.396716 150.8544 
" clip-path="url(#p42a20b718d)" style="fill: none; stroke: #b0b0b0; stroke-opacity: 0.15; stroke-width: 0.8; stroke-linecap: square"/>
     </g>
     <g id="line2d_23">
      <g>
       <use xlink:href="#m040e3889a8" x="621.396716" y="424.6272" style="stroke: #000000; stroke-width: 0.8"/>
      </g>
     </g>
     <g id="text_35">
      <text style="font-size: 10px; font-family: 'DejaVu Sans'; text-anchor: middle" x="621.396716" y="439.225638" transform="rotate(-0 621.396716 439.225638)">5</text>
     </g>
    </g>
    <g id="xtick_8">
     <g id="line2d_24">
      <path d="M 674.603284 424.6272 
L 674.603284 150.8544 
" clip-path="url(#p42a20b718d)" style="fill: none; stroke: #b0b0b0; stroke-opacity: 0.15; stroke-width: 0.8; stroke-linecap: square"/>
     </g>
     <g id="line2d_25">
      <g>
       <use xlink:href="#m040e3889a8" x="674.603284" y="424.6272" style="stroke: #000000; stroke-width: 0.8"/>
      </g>
     </g>
     <g id="text_36">
      <text style="font-size: 10px; font-family: 'DejaVu Sans'; text-anchor: middle" x="674.603284" y="439.225638" transform="rotate(-0 674.603284 439.225638)">10</text>
     </g>
    </g>
    <g id="xtick_9">
     <g id="line2d_26">
      <path d="M 727.809853 424.6272 
L 727.809853 150.8544 
" clip-path="url(#p42a20b718d)" style="fill: none; stroke: #b0b0b0; stroke-opacity: 0.15; stroke-width: 0.8; stroke-linecap: square"/>
     </g>
     <g id="line2d_27">
      <g>
       <use xlink:href="#m040e3889a8" x="727.809853" y="424.6272" style="stroke: #000000; stroke-width: 0.8"/>
      </g>
     </g>
     <g id="text_37">
      <text style="font-size: 10px; font-family: 'DejaVu Sans'; text-anchor: middle" x="727.809853" y="439.225638" transform="rotate(-0 727.809853 439.225638)">15</text>
     </g>
    </g>
    <g id="xtick_10">
     <g id="line2d_28">
      <path d="M 781.016422 424.6272 
L 781.016422 150.8544 
" clip-path="url(#p42a20b718d)" style="fill: none; stroke: #b0b0b0; stroke-opacity: 0.15; stroke-width: 0.8; stroke-linecap: square"/>
     </g>
     <g id="line2d_29">
      <g>
       <use xlink:href="#m040e3889a8" x="781.016422" y="424.6272" style="stroke: #000000; stroke-width: 0.8"/>
      </g>
     </g>
     <g id="text_38">
      <text style="font-size: 10px; font-family: 'DejaVu Sans'; text-anchor: middle" x="781.016422" y="439.225638" transform="rotate(-0 781.016422 439.225638)">20</text>
     </g>
    </g>
    <g id="text_39">
     <text style="font-size: 10px; font-family: 'DejaVu Sans'; text-anchor: middle" x="674.603284" y="452.903763" transform="rotate(-0 674.603284 452.903763)">20 answers</text>
    </g>
   </g>
   <g id="matplotlib.axis_4">
    <g id="ytick_9">
     <g id="line2d_30"/>
    </g>
    <g id="ytick_10">
     <g id="line2d_31"/>
    </g>
    <g id="ytick_11">
     <g id="line2d_32"/>
    </g>
    <g id="ytick_12">
     <g id="line2d_33"/>
    </g>
    <g id="ytick_13">
     <g id="line2d_34"/>
    </g>
    <g id="ytick_14">
     <g id="line2d_35"/>
    </g>
    <g id="ytick_15">
     <g id="line2d_36"/>
    </g>
    <g id="ytick_16">
     <g id="line2d_37"/>
    </g>
   </g>
   <g id="patch_23">
    <path d="M 568.190147 164.287563 
L 759.733794 164.287563 
L 759.733794 180.440323 
L 568.190147 180.440323 
z
" clip-path="url(#p42a20b718d)" style="fill: #247c78"/>
   </g>
   <g id="patch_24">
    <path d="M 759.733794 164.287563 
L 770.375108 164.287563 
L 770.375108 180.440323 
L 759.733794 180.440323 
z
" clip-path="url(#p42a20b718d)" style="fill: #e8b557"/>
   </g>
   <g id="patch_25">
    <path d="M 770.375108 164.287563 
L 781.016422 164.287563 
L 781.016422 180.440323 
L 770.375108 180.440323 
z
" clip-path="url(#p42a20b718d)" style="fill: #bb5356"/>
   </g>
   <g id="patch_26">
    <path d="M 568.190147 197.252379 
L 759.733794 197.252379 
L 759.733794 213.405139 
L 568.190147 213.405139 
z
" clip-path="url(#p42a20b718d)" style="fill: #247c78"/>
   </g>
   <g id="patch_27">
    <path d="M 759.733794 197.252379 
L 770.375108 197.252379 
L 770.375108 213.405139 
L 759.733794 213.405139 
z
" clip-path="url(#p42a20b718d)" style="fill: #e8b557"/>
   </g>
   <g id="patch_28">
    <path d="M 770.375108 197.252379 
L 781.016422 197.252379 
L 781.016422 213.405139 
L 770.375108 213.405139 
z
" clip-path="url(#p42a20b718d)" style="fill: #bb5356"/>
   </g>
   <g id="patch_29">
    <path d="M 568.190147 230.217195 
L 738.451167 230.217195 
L 738.451167 246.369955 
L 568.190147 246.369955 
z
" clip-path="url(#p42a20b718d)" style="fill: #247c78"/>
   </g>
   <g id="patch_30">
    <path d="M 738.451167 230.217195 
L 749.092481 230.217195 
L 749.092481 246.369955 
L 738.451167 246.369955 
z
" clip-path="url(#p42a20b718d)" style="fill: #e8b557"/>
   </g>
   <g id="patch_31">
    <path d="M 749.092481 230.217195 
L 759.733794 230.217195 
L 759.733794 246.369955 
L 749.092481 246.369955 
z
" clip-path="url(#p42a20b718d)" style="fill: #bb5356"/>
   </g>
   <g id="patch_32">
    <path d="M 759.733794 230.217195 
L 781.016422 230.217195 
L 781.016422 246.369955 
L 759.733794 246.369955 
z
" clip-path="url(#p42a20b718d)" style="fill: #8571a7"/>
   </g>
   <g id="patch_33">
    <path d="M 568.190147 263.182012 
L 759.733794 263.182012 
L 759.733794 279.334772 
L 568.190147 279.334772 
z
" clip-path="url(#p42a20b718d)" style="fill: #247c78"/>
   </g>
   <g id="patch_34">
    <path d="M 759.733794 263.182012 
L 781.016422 263.182012 
L 781.016422 279.334772 
L 759.733794 279.334772 
z
" clip-path="url(#p42a20b718d)" style="fill: #e8b557"/>
   </g>
   <g id="patch_35">
    <path d="M 568.190147 296.146828 
L 759.733794 296.146828 
L 759.733794 312.299588 
L 568.190147 312.299588 
z
" clip-path="url(#p42a20b718d)" style="fill: #247c78"/>
   </g>
   <g id="patch_36">
    <path d="M 759.733794 296.146828 
L 781.016422 296.146828 
L 781.016422 312.299588 
L 759.733794 312.299588 
z
" clip-path="url(#p42a20b718d)" style="fill: #e8b557"/>
   </g>
   <g id="patch_37">
    <path d="M 568.190147 329.111645 
L 770.375108 329.111645 
L 770.375108 345.264405 
L 568.190147 345.264405 
z
" clip-path="url(#p42a20b718d)" style="fill: #247c78"/>
   </g>
   <g id="patch_38">
    <path d="M 770.375108 329.111645 
L 781.016422 329.111645 
L 781.016422 345.264405 
L 770.375108 345.264405 
z
" clip-path="url(#p42a20b718d)" style="fill: #e8b557"/>
   </g>
   <g id="patch_39">
    <path d="M 568.190147 362.076461 
L 749.092481 362.076461 
L 749.092481 378.229221 
L 568.190147 378.229221 
z
" clip-path="url(#p42a20b718d)" style="fill: #247c78"/>
   </g>
   <g id="patch_40">
    <path d="M 749.092481 362.076461 
L 770.375108 362.076461 
L 770.375108 378.229221 
L 749.092481 378.229221 
z
" clip-path="url(#p42a20b718d)" style="fill: #e8b557"/>
   </g>
   <g id="patch_41">
    <path d="M 770.375108 362.076461 
L 781.016422 362.076461 
L 781.016422 378.229221 
L 770.375108 378.229221 
z
" clip-path="url(#p42a20b718d)" style="fill: #bb5356"/>
   </g>
   <g id="patch_42">
    <path d="M 568.190147 395.041277 
L 749.092481 395.041277 
L 749.092481 411.194037 
L 568.190147 411.194037 
z
" clip-path="url(#p42a20b718d)" style="fill: #247c78"/>
   </g>
   <g id="patch_43">
    <path d="M 749.092481 395.041277 
L 770.375108 395.041277 
L 770.375108 411.194037 
L 749.092481 411.194037 
z
" clip-path="url(#p42a20b718d)" style="fill: #e8b557"/>
   </g>
   <g id="patch_44">
    <path d="M 770.375108 395.041277 
L 781.016422 395.041277 
L 781.016422 411.194037 
L 770.375108 411.194037 
z
" clip-path="url(#p42a20b718d)" style="fill: #8571a7"/>
   </g>
   <g id="patch_45">
    <path d="M 568.190147 424.6272 
L 781.016422 424.6272 
" style="fill: none; stroke: #cbd2d9; stroke-width: 0.8; stroke-linejoin: miter; stroke-linecap: square"/>
   </g>
   <g id="text_40">
    <text style="font-size: 9px; font-family: 'DejaVu Sans'; text-anchor: middle; fill: #ffffff" x="663.961971" y="174.84738" transform="rotate(-0 663.961971 174.84738)">18</text>
   </g>
   <g id="text_41">
    <text style="font-size: 9px; font-family: 'DejaVu Sans'; text-anchor: middle; fill: #29343b" x="765.054451" y="174.84738" transform="rotate(-0 765.054451 174.84738)">1</text>
   </g>
   <g id="text_42">
    <text style="font-size: 9px; font-family: 'DejaVu Sans'; text-anchor: middle; fill: #ffffff" x="775.695765" y="174.84738" transform="rotate(-0 775.695765 174.84738)">1</text>
   </g>
   <g id="text_43">
    <text style="font-size: 9px; font-family: 'DejaVu Sans'; text-anchor: middle; fill: #ffffff" x="663.961971" y="207.812197" transform="rotate(-0 663.961971 207.812197)">18</text>
   </g>
   <g id="text_44">
    <text style="font-size: 9px; font-family: 'DejaVu Sans'; text-anchor: middle; fill: #29343b" x="765.054451" y="207.812197" transform="rotate(-0 765.054451 207.812197)">1</text>
   </g>
   <g id="text_45">
    <text style="font-size: 9px; font-family: 'DejaVu Sans'; text-anchor: middle; fill: #ffffff" x="775.695765" y="207.812197" transform="rotate(-0 775.695765 207.812197)">1</text>
   </g>
   <g id="text_46">
    <text style="font-size: 9px; font-family: 'DejaVu Sans'; text-anchor: middle; fill: #ffffff" x="653.320657" y="240.777013" transform="rotate(-0 653.320657 240.777013)">16</text>
   </g>
   <g id="text_47">
    <text style="font-size: 9px; font-family: 'DejaVu Sans'; text-anchor: middle; fill: #29343b" x="743.771824" y="240.777013" transform="rotate(-0 743.771824 240.777013)">1</text>
   </g>
   <g id="text_48">
    <text style="font-size: 9px; font-family: 'DejaVu Sans'; text-anchor: middle; fill: #ffffff" x="754.413137" y="240.777013" transform="rotate(-0 754.413137 240.777013)">1</text>
   </g>
   <g id="text_49">
    <text style="font-size: 9px; font-family: 'DejaVu Sans'; text-anchor: middle; fill: #ffffff" x="770.375108" y="240.777013" transform="rotate(-0 770.375108 240.777013)">2</text>
   </g>
   <g id="text_50">
    <text style="font-size: 9px; font-family: 'DejaVu Sans'; text-anchor: middle; fill: #ffffff" x="663.961971" y="273.741829" transform="rotate(-0 663.961971 273.741829)">18</text>
   </g>
   <g id="text_51">
    <text style="font-size: 9px; font-family: 'DejaVu Sans'; text-anchor: middle; fill: #29343b" x="770.375108" y="273.741829" transform="rotate(-0 770.375108 273.741829)">2</text>
   </g>
   <g id="text_52">
    <text style="font-size: 9px; font-family: 'DejaVu Sans'; text-anchor: middle; fill: #ffffff" x="663.961971" y="306.706646" transform="rotate(-0 663.961971 306.706646)">18</text>
   </g>
   <g id="text_53">
    <text style="font-size: 9px; font-family: 'DejaVu Sans'; text-anchor: middle; fill: #29343b" x="770.375108" y="306.706646" transform="rotate(-0 770.375108 306.706646)">2</text>
   </g>
   <g id="text_54">
    <text style="font-size: 9px; font-family: 'DejaVu Sans'; text-anchor: middle; fill: #ffffff" x="669.282627" y="339.671462" transform="rotate(-0 669.282627 339.671462)">19</text>
   </g>
   <g id="text_55">
    <text style="font-size: 9px; font-family: 'DejaVu Sans'; text-anchor: middle; fill: #29343b" x="775.695765" y="339.671462" transform="rotate(-0 775.695765 339.671462)">1</text>
   </g>
   <g id="text_56">
    <text style="font-size: 9px; font-family: 'DejaVu Sans'; text-anchor: middle; fill: #ffffff" x="658.641314" y="372.636278" transform="rotate(-0 658.641314 372.636278)">17</text>
   </g>
   <g id="text_57">
    <text style="font-size: 9px; font-family: 'DejaVu Sans'; text-anchor: middle; fill: #29343b" x="759.733794" y="372.636278" transform="rotate(-0 759.733794 372.636278)">2</text>
   </g>
   <g id="text_58">
    <text style="font-size: 9px; font-family: 'DejaVu Sans'; text-anchor: middle; fill: #ffffff" x="775.695765" y="372.636278" transform="rotate(-0 775.695765 372.636278)">1</text>
   </g>
   <g id="text_59">
    <text style="font-size: 9px; font-family: 'DejaVu Sans'; text-anchor: middle; fill: #ffffff" x="658.641314" y="405.601095" transform="rotate(-0 658.641314 405.601095)">17</text>
   </g>
   <g id="text_60">
    <text style="font-size: 9px; font-family: 'DejaVu Sans'; text-anchor: middle; fill: #29343b" x="759.733794" y="405.601095" transform="rotate(-0 759.733794 405.601095)">2</text>
   </g>
   <g id="text_61">
    <text style="font-size: 9px; font-family: 'DejaVu Sans'; text-anchor: middle; fill: #ffffff" x="775.695765" y="405.601095" transform="rotate(-0 775.695765 405.601095)">1</text>
   </g>
   <g id="text_62">
    <text style="font-weight: 700; font-size: 12px; font-family: 'DejaVu Sans'; text-anchor: start" x="568.190147" y="110.8544" transform="rotate(-0 568.190147 110.8544)">Extraction answers</text>
   </g>
   <g id="legend_2">
    <g id="patch_46">
     <path d="M 575.390147 126.141558 
L 591.390147 126.141558 
L 591.390147 120.541558 
L 575.390147 120.541558 
z
" style="fill: #247c78; stroke: #247c78; stroke-linejoin: miter"/>
    </g>
    <g id="text_63">
     <text style="font-size: 8px; font-family: 'DejaVu Sans'; text-anchor: start" x="597.790147" y="126.141558" transform="rotate(-0 597.790147 126.141558)">Correct</text>
    </g>
    <g id="patch_47">
     <path d="M 575.390147 137.884058 
L 591.390147 137.884058 
L 591.390147 132.284058 
L 575.390147 132.284058 
z
" style="fill: #e8b557; stroke: #e8b557; stroke-linejoin: miter"/>
    </g>
    <g id="text_64">
     <text style="font-size: 8px; font-family: 'DejaVu Sans'; text-anchor: start" x="597.790147" y="137.884058" transform="rotate(-0 597.790147 137.884058)">Partial</text>
    </g>
    <g id="patch_48">
     <path d="M 642.986397 126.141558 
L 658.986397 126.141558 
L 658.986397 120.541558 
L 642.986397 120.541558 
z
" style="fill: #bb5356; stroke: #bb5356; stroke-linejoin: miter"/>
    </g>
    <g id="text_65">
     <text style="font-size: 8px; font-family: 'DejaVu Sans'; text-anchor: start" x="665.386397" y="126.141558" transform="rotate(-0 665.386397 126.141558)">Contradiction</text>
    </g>
    <g id="patch_49">
     <path d="M 642.986397 137.884058 
L 658.986397 137.884058 
L 658.986397 132.284058 
L 642.986397 132.284058 
z
" style="fill: #8571a7; stroke: #8571a7; stroke-linejoin: miter"/>
    </g>
    <g id="text_66">
     <text style="font-size: 8px; font-family: 'DejaVu Sans'; text-anchor: start" x="665.386397" y="137.884058" transform="rotate(-0 665.386397 137.884058)">Other</text>
    </g>
   </g>
  </g>
  <g id="axes_3">
   <g id="patch_50">
    <path d="M 845.573725 424.6272 
L 1058.4 424.6272 
L 1058.4 150.8544 
L 845.573725 150.8544 
z
" style="fill: #ffffff"/>
   </g>
   <g id="matplotlib.axis_5">
    <g id="xtick_11">
     <g id="line2d_38">
      <path d="M 845.573725 424.6272 
L 845.573725 150.8544 
" clip-path="url(#p8077b278a6)" style="fill: none; stroke: #b0b0b0; stroke-opacity: 0.15; stroke-width: 0.8; stroke-linecap: square"/>
     </g>
     <g id="line2d_39">
      <g>
       <use xlink:href="#m040e3889a8" x="845.573725" y="424.6272" style="stroke: #000000; stroke-width: 0.8"/>
      </g>
     </g>
     <g id="text_67">
      <text style="font-size: 10px; font-family: 'DejaVu Sans'; text-anchor: middle" x="845.573725" y="439.225638" transform="rotate(-0 845.573725 439.225638)">0</text>
     </g>
    </g>
    <g id="xtick_12">
     <g id="line2d_40">
      <path d="M 898.780294 424.6272 
L 898.780294 150.8544 
" clip-path="url(#p8077b278a6)" style="fill: none; stroke: #b0b0b0; stroke-opacity: 0.15; stroke-width: 0.8; stroke-linecap: square"/>
     </g>
     <g id="line2d_41">
      <g>
       <use xlink:href="#m040e3889a8" x="898.780294" y="424.6272" style="stroke: #000000; stroke-width: 0.8"/>
      </g>
     </g>
     <g id="text_68">
      <text style="font-size: 10px; font-family: 'DejaVu Sans'; text-anchor: middle" x="898.780294" y="439.225638" transform="rotate(-0 898.780294 439.225638)">4</text>
     </g>
    </g>
    <g id="xtick_13">
     <g id="line2d_42">
      <path d="M 951.986863 424.6272 
L 951.986863 150.8544 
" clip-path="url(#p8077b278a6)" style="fill: none; stroke: #b0b0b0; stroke-opacity: 0.15; stroke-width: 0.8; stroke-linecap: square"/>
     </g>
     <g id="line2d_43">
      <g>
       <use xlink:href="#m040e3889a8" x="951.986863" y="424.6272" style="stroke: #000000; stroke-width: 0.8"/>
      </g>
     </g>
     <g id="text_69">
      <text style="font-size: 10px; font-family: 'DejaVu Sans'; text-anchor: middle" x="951.986863" y="439.225638" transform="rotate(-0 951.986863 439.225638)">8</text>
     </g>
    </g>
    <g id="xtick_14">
     <g id="line2d_44">
      <path d="M 1005.193431 424.6272 
L 1005.193431 150.8544 
" clip-path="url(#p8077b278a6)" style="fill: none; stroke: #b0b0b0; stroke-opacity: 0.15; stroke-width: 0.8; stroke-linecap: square"/>
     </g>
     <g id="line2d_45">
      <g>
       <use xlink:href="#m040e3889a8" x="1005.193431" y="424.6272" style="stroke: #000000; stroke-width: 0.8"/>
      </g>
     </g>
     <g id="text_70">
      <text style="font-size: 10px; font-family: 'DejaVu Sans'; text-anchor: middle" x="1005.193431" y="439.225638" transform="rotate(-0 1005.193431 439.225638)">12</text>
     </g>
    </g>
    <g id="xtick_15">
     <g id="line2d_46">
      <path d="M 1058.4 424.6272 
L 1058.4 150.8544 
" clip-path="url(#p8077b278a6)" style="fill: none; stroke: #b0b0b0; stroke-opacity: 0.15; stroke-width: 0.8; stroke-linecap: square"/>
     </g>
     <g id="line2d_47">
      <g>
       <use xlink:href="#m040e3889a8" x="1058.4" y="424.6272" style="stroke: #000000; stroke-width: 0.8"/>
      </g>
     </g>
     <g id="text_71">
      <text style="font-size: 10px; font-family: 'DejaVu Sans'; text-anchor: middle" x="1058.4" y="439.225638" transform="rotate(-0 1058.4 439.225638)">16</text>
     </g>
    </g>
    <g id="text_72">
     <text style="font-size: 10px; font-family: 'DejaVu Sans'; text-anchor: middle" x="951.986863" y="452.903763" transform="rotate(-0 951.986863 452.903763)">16 compound source units</text>
    </g>
   </g>
   <g id="matplotlib.axis_6">
    <g id="ytick_17">
     <g id="line2d_48"/>
    </g>
    <g id="ytick_18">
     <g id="line2d_49"/>
    </g>
    <g id="ytick_19">
     <g id="line2d_50"/>
    </g>
    <g id="ytick_20">
     <g id="line2d_51"/>
    </g>
    <g id="ytick_21">
     <g id="line2d_52"/>
    </g>
    <g id="ytick_22">
     <g id="line2d_53"/>
    </g>
    <g id="ytick_23">
     <g id="line2d_54"/>
    </g>
    <g id="ytick_24">
     <g id="line2d_55"/>
    </g>
   </g>
   <g id="patch_51">
    <path d="M 845.573725 164.287563 
L 885.478652 164.287563 
L 885.478652 180.440323 
L 845.573725 180.440323 
z
" clip-path="url(#p8077b278a6)" style="fill: #247c78"/>
   </g>
   <g id="patch_52">
    <path d="M 885.478652 164.287563 
L 1005.193431 164.287563 
L 1005.193431 180.440323 
L 885.478652 180.440323 
z
" clip-path="url(#p8077b278a6)" style="fill: #e8b557"/>
   </g>
   <g id="patch_53">
    <path d="M 1005.193431 164.287563 
L 1058.4 164.287563 
L 1058.4 180.440323 
L 1005.193431 180.440323 
z
" clip-path="url(#p8077b278a6)" style="fill: #dbe1e6"/>
   </g>
   <g id="patch_54">
    <path d="M 845.573725 197.252379 
L 885.478652 197.252379 
L 885.478652 213.405139 
L 845.573725 213.405139 
z
" clip-path="url(#p8077b278a6)" style="fill: #247c78"/>
   </g>
   <g id="patch_55">
    <path d="M 885.478652 197.252379 
L 1005.193431 197.252379 
L 1005.193431 213.405139 
L 885.478652 213.405139 
z
" clip-path="url(#p8077b278a6)" style="fill: #e8b557"/>
   </g>
   <g id="patch_56">
    <path d="M 1005.193431 197.252379 
L 1058.4 197.252379 
L 1058.4 213.405139 
L 1005.193431 213.405139 
z
" clip-path="url(#p8077b278a6)" style="fill: #dbe1e6"/>
   </g>
   <g id="patch_57">
    <path d="M 845.573725 230.217195 
L 858.875367 230.217195 
L 858.875367 246.369955 
L 845.573725 246.369955 
z
" clip-path="url(#p8077b278a6)" style="fill: #247c78"/>
   </g>
   <g id="patch_58">
    <path d="M 858.875367 230.217195 
L 991.891789 230.217195 
L 991.891789 246.369955 
L 858.875367 246.369955 
z
" clip-path="url(#p8077b278a6)" style="fill: #e8b557"/>
   </g>
   <g id="patch_59">
    <path d="M 991.891789 230.217195 
L 1058.4 230.217195 
L 1058.4 246.369955 
L 991.891789 246.369955 
z
" clip-path="url(#p8077b278a6)" style="fill: #dbe1e6"/>
   </g>
   <g id="patch_60">
    <path d="M 845.573725 263.182012 
L 898.780294 263.182012 
L 898.780294 279.334772 
L 845.573725 279.334772 
z
" clip-path="url(#p8077b278a6)" style="fill: #247c78"/>
   </g>
   <g id="patch_61">
    <path d="M 898.780294 263.182012 
L 1018.495073 263.182012 
L 1018.495073 279.334772 
L 898.780294 279.334772 
z
" clip-path="url(#p8077b278a6)" style="fill: #e8b557"/>
   </g>
   <g id="patch_62">
    <path d="M 1018.495073 263.182012 
L 1058.4 263.182012 
L 1058.4 279.334772 
L 1018.495073 279.334772 
z
" clip-path="url(#p8077b278a6)" style="fill: #dbe1e6"/>
   </g>
   <g id="patch_63">
    <path d="M 845.573725 296.146828 
L 925.383578 296.146828 
L 925.383578 312.299588 
L 845.573725 312.299588 
z
" clip-path="url(#p8077b278a6)" style="fill: #247c78"/>
   </g>
   <g id="patch_64">
    <path d="M 925.383578 296.146828 
L 1018.495073 296.146828 
L 1018.495073 312.299588 
L 925.383578 312.299588 
z
" clip-path="url(#p8077b278a6)" style="fill: #e8b557"/>
   </g>
   <g id="patch_65">
    <path d="M 1018.495073 296.146828 
L 1058.4 296.146828 
L 1058.4 312.299588 
L 1018.495073 312.299588 
z
" clip-path="url(#p8077b278a6)" style="fill: #dbe1e6"/>
   </g>
   <g id="patch_66">
    <path d="M 845.573725 329.111645 
L 898.780294 329.111645 
L 898.780294 345.264405 
L 845.573725 345.264405 
z
" clip-path="url(#p8077b278a6)" style="fill: #247c78"/>
   </g>
   <g id="patch_67">
    <path d="M 898.780294 329.111645 
L 912.081936 329.111645 
L 912.081936 345.264405 
L 898.780294 345.264405 
z
" clip-path="url(#p8077b278a6)" style="fill: #e8b557"/>
   </g>
   <g id="patch_68">
    <path d="M 912.081936 329.111645 
L 1058.4 329.111645 
L 1058.4 345.264405 
L 912.081936 345.264405 
z
" clip-path="url(#p8077b278a6)" style="fill: #dbe1e6"/>
   </g>
   <g id="patch_69">
    <path d="M 845.573725 362.076461 
L 872.17701 362.076461 
L 872.17701 378.229221 
L 845.573725 378.229221 
z
" clip-path="url(#p8077b278a6)" style="fill: #247c78"/>
   </g>
   <g id="patch_70">
    <path d="M 872.17701 362.076461 
L 991.891789 362.076461 
L 991.891789 378.229221 
L 872.17701 378.229221 
z
" clip-path="url(#p8077b278a6)" style="fill: #e8b557"/>
   </g>
   <g id="patch_71">
    <path d="M 991.891789 362.076461 
L 1058.4 362.076461 
L 1058.4 378.229221 
L 991.891789 378.229221 
z
" clip-path="url(#p8077b278a6)" style="fill: #dbe1e6"/>
   </g>
   <g id="patch_72">
    <path d="M 845.573725 395.041277 
L 898.780294 395.041277 
L 898.780294 411.194037 
L 845.573725 411.194037 
z
" clip-path="url(#p8077b278a6)" style="fill: #247c78"/>
   </g>
   <g id="patch_73">
    <path d="M 898.780294 395.041277 
L 925.383578 395.041277 
L 925.383578 411.194037 
L 898.780294 411.194037 
z
" clip-path="url(#p8077b278a6)" style="fill: #e8b557"/>
   </g>
   <g id="patch_74">
    <path d="M 925.383578 395.041277 
L 1058.4 395.041277 
L 1058.4 411.194037 
L 925.383578 411.194037 
z
" clip-path="url(#p8077b278a6)" style="fill: #dbe1e6"/>
   </g>
   <g id="patch_75">
    <path d="M 845.573725 424.6272 
L 1058.4 424.6272 
" style="fill: none; stroke: #cbd2d9; stroke-width: 0.8; stroke-linejoin: miter; stroke-linecap: square"/>
   </g>
   <g id="text_73">
    <text style="font-size: 9px; font-family: 'DejaVu Sans'; text-anchor: middle; fill: #ffffff" x="865.526188" y="174.84738" transform="rotate(-0 865.526188 174.84738)">3</text>
   </g>
   <g id="text_74">
    <text style="font-size: 9px; font-family: 'DejaVu Sans'; text-anchor: middle; fill: #29343b" x="945.336041" y="174.84738" transform="rotate(-0 945.336041 174.84738)">9</text>
   </g>
   <g id="text_75">
    <text style="font-size: 9px; font-family: 'DejaVu Sans'; text-anchor: middle; fill: #29343b" x="1031.796716" y="174.84738" transform="rotate(-0 1031.796716 174.84738)">4</text>
   </g>
   <g id="text_76">
    <text style="font-size: 9px; font-family: 'DejaVu Sans'; text-anchor: middle; fill: #ffffff" x="865.526188" y="207.812197" transform="rotate(-0 865.526188 207.812197)">3</text>
   </g>
   <g id="text_77">
    <text style="font-size: 9px; font-family: 'DejaVu Sans'; text-anchor: middle; fill: #29343b" x="945.336041" y="207.812197" transform="rotate(-0 945.336041 207.812197)">9</text>
   </g>
   <g id="text_78">
    <text style="font-size: 9px; font-family: 'DejaVu Sans'; text-anchor: middle; fill: #29343b" x="1031.796716" y="207.812197" transform="rotate(-0 1031.796716 207.812197)">4</text>
   </g>
   <g id="text_79">
    <text style="font-size: 9px; font-family: 'DejaVu Sans'; text-anchor: middle; fill: #ffffff" x="852.224546" y="240.777013" transform="rotate(-0 852.224546 240.777013)">1</text>
   </g>
   <g id="text_80">
    <text style="font-size: 9px; font-family: 'DejaVu Sans'; text-anchor: middle; fill: #29343b" x="925.383578" y="240.777013" transform="rotate(-0 925.383578 240.777013)">10</text>
   </g>
   <g id="text_81">
    <text style="font-size: 9px; font-family: 'DejaVu Sans'; text-anchor: middle; fill: #29343b" x="1025.145895" y="240.777013" transform="rotate(-0 1025.145895 240.777013)">5</text>
   </g>
   <g id="text_82">
    <text style="font-size: 9px; font-family: 'DejaVu Sans'; text-anchor: middle; fill: #ffffff" x="872.17701" y="273.741829" transform="rotate(-0 872.17701 273.741829)">4</text>
   </g>
   <g id="text_83">
    <text style="font-size: 9px; font-family: 'DejaVu Sans'; text-anchor: middle; fill: #29343b" x="958.637684" y="273.741829" transform="rotate(-0 958.637684 273.741829)">9</text>
   </g>
   <g id="text_84">
    <text style="font-size: 9px; font-family: 'DejaVu Sans'; text-anchor: middle; fill: #29343b" x="1038.447537" y="273.741829" transform="rotate(-0 1038.447537 273.741829)">3</text>
   </g>
   <g id="text_85">
    <text style="font-size: 9px; font-family: 'DejaVu Sans'; text-anchor: middle; fill: #ffffff" x="885.478652" y="306.706646" transform="rotate(-0 885.478652 306.706646)">6</text>
   </g>
   <g id="text_86">
    <text style="font-size: 9px; font-family: 'DejaVu Sans'; text-anchor: middle; fill: #29343b" x="971.939326" y="306.706646" transform="rotate(-0 971.939326 306.706646)">7</text>
   </g>
   <g id="text_87">
    <text style="font-size: 9px; font-family: 'DejaVu Sans'; text-anchor: middle; fill: #29343b" x="1038.447537" y="306.706646" transform="rotate(-0 1038.447537 306.706646)">3</text>
   </g>
   <g id="text_88">
    <text style="font-size: 9px; font-family: 'DejaVu Sans'; text-anchor: middle; fill: #ffffff" x="872.17701" y="339.671462" transform="rotate(-0 872.17701 339.671462)">4</text>
   </g>
   <g id="text_89">
    <text style="font-size: 9px; font-family: 'DejaVu Sans'; text-anchor: middle; fill: #29343b" x="905.431115" y="339.671462" transform="rotate(-0 905.431115 339.671462)">1</text>
   </g>
   <g id="text_90">
    <text style="font-size: 9px; font-family: 'DejaVu Sans'; text-anchor: middle; fill: #29343b" x="985.240968" y="339.671462" transform="rotate(-0 985.240968 339.671462)">11</text>
   </g>
   <g id="text_91">
    <text style="font-size: 9px; font-family: 'DejaVu Sans'; text-anchor: middle; fill: #ffffff" x="858.875367" y="372.636278" transform="rotate(-0 858.875367 372.636278)">2</text>
   </g>
   <g id="text_92">
    <text style="font-size: 9px; font-family: 'DejaVu Sans'; text-anchor: middle; fill: #29343b" x="932.034399" y="372.636278" transform="rotate(-0 932.034399 372.636278)">9</text>
   </g>
   <g id="text_93">
    <text style="font-size: 9px; font-family: 'DejaVu Sans'; text-anchor: middle; fill: #29343b" x="1025.145895" y="372.636278" transform="rotate(-0 1025.145895 372.636278)">5</text>
   </g>
   <g id="text_94">
    <text style="font-size: 9px; font-family: 'DejaVu Sans'; text-anchor: middle; fill: #ffffff" x="872.17701" y="405.601095" transform="rotate(-0 872.17701 405.601095)">4</text>
   </g>
   <g id="text_95">
    <text style="font-size: 9px; font-family: 'DejaVu Sans'; text-anchor: middle; fill: #29343b" x="912.081936" y="405.601095" transform="rotate(-0 912.081936 405.601095)">2</text>
   </g>
   <g id="text_96">
    <text style="font-size: 9px; font-family: 'DejaVu Sans'; text-anchor: middle; fill: #29343b" x="991.891789" y="405.601095" transform="rotate(-0 991.891789 405.601095)">10</text>
   </g>
   <g id="text_97">
    <text style="font-weight: 700; font-size: 12px; font-family: 'DejaVu Sans'; text-anchor: start" x="845.573725" y="110.8544" transform="rotate(-0 845.573725 110.8544)">Full-source coverage</text>
   </g>
   <g id="legend_3">
    <g id="patch_76">
     <path d="M 852.773725 126.141558 
L 868.773725 126.141558 
L 868.773725 120.541558 
L 852.773725 120.541558 
z
" style="fill: #247c78; stroke: #247c78; stroke-linejoin: miter"/>
    </g>
    <g id="text_98">
     <text style="font-size: 8px; font-family: 'DejaVu Sans'; text-anchor: start" x="875.173725" y="126.141558" transform="rotate(-0 875.173725 126.141558)">Covered</text>
    </g>
    <g id="patch_77">
     <path d="M 852.773725 137.884058 
L 868.773725 137.884058 
L 868.773725 132.284058 
L 852.773725 132.284058 
z
" style="fill: #e8b557; stroke: #e8b557; stroke-linejoin: miter"/>
    </g>
    <g id="text_99">
     <text style="font-size: 8px; font-family: 'DejaVu Sans'; text-anchor: start" x="875.173725" y="137.884058" transform="rotate(-0 875.173725 137.884058)">Partial</text>
    </g>
    <g id="patch_78">
     <path d="M 924.422475 126.141558 
L 940.422475 126.141558 
L 940.422475 120.541558 
L 924.422475 120.541558 
z
" style="fill: #dbe1e6; stroke: #dbe1e6; stroke-linejoin: miter"/>
    </g>
    <g id="text_100">
     <text style="font-size: 8px; font-family: 'DejaVu Sans'; text-anchor: start" x="946.822475" y="126.141558" transform="rotate(-0 946.822475 126.141558)">Omitted</text>
    </g>
   </g>
  </g>
  <g id="text_101">
   <text style="font-weight: 700; font-size: 21px; font-family: 'DejaVu Sans'; text-anchor: start" x="37.8" y="38.305519" transform="rotate(-0 37.8 38.305519)">M4 Max: research speed and source fidelity</text>
  </g>
  <g id="text_102">
   <text style="font-size: 11px; font-family: 'DejaVu Sans'; text-anchor: start; fill: #4b5563" x="37.8" y="61.4592" transform="rotate(-0 37.8 61.4592)">64 GiB unified memory · Transfers never paused · Completed reviews only; campaign in progress</text>
  </g>
  <g id="text_103">
   <text style="font-size: 10px; font-family: 'DejaVu Sans'; text-anchor: start; fill: #4b5563" x="37.8" y="480.4992" transform="rotate(-0 37.8 480.4992)">Ten held-out requests per battery; Qwen8 GGUF repeated separately. Wall rate excludes startup and inter-request work.</text>
  </g>
  <g id="text_104">
   <text style="font-size: 10px; font-family: 'DejaVu Sans'; text-anchor: start; fill: #4b5563" x="37.8" y="505.6416" transform="rotate(-0 37.8 505.6416)">MLX uses different weights, quantization and cache behavior. These observations do not isolate backend or hardware effects.</text>
  </g>
  <g id="text_105">
   <text style="font-size: 10px; font-family: 'DejaVu Sans'; text-anchor: start; fill: #4b5563" x="37.8" y="530.784" transform="rotate(-0 37.8 530.784)">Source fidelity: Codex-assisted review, no independent human adjudication. Coverage, citations and factual errors remain separate.</text>
  </g>
 </g>
 <defs>
  <clipPath id="pbafd287e67">
   <rect x="237.6" y="150.8544" width="266.032844" height="273.7728"/>
  </clipPath>
  <clipPath id="p42a20b718d">
   <rect x="568.190147" y="150.8544" width="212.826275" height="273.7728"/>
  </clipPath>
  <clipPath id="p8077b278a6">
   <rect x="845.573725" y="150.8544" width="212.826275" height="273.7728"/>
  </clipPath>
 </defs>
</svg>
